<ttFont>
          <CharString index="0">
            rmoveto
            68 vlineto
            351 -203 214 -308 -301 -208 -214 -351 vhcurveto
            -68 vlineto
            -351 210 -213 301 307 202 213 351 vhcurveto
            -185 70 rmoveto
            -70 vlineto
            -264 -118 -147 -206 -197 -129 147 264 vhcurveto
            70 vlineto
            263 127 146 197 205 121 -146 -263 vhcurveto
            endchar
          </CharString>
          <CharString index="1">
            rmoveto
            302 -135 227 -311 -243 -230 -204 -352 vhcurveto
            -43 vlineto
            -304 195 -219 302 215 123 102 107 70 vhcurveto
            -113 88 rlineto
            -89 -68 -86 -58 -131 hhcurveto
            -197 -118 160 200 -5 hvcurveto
            732 hlineto
            -187 11 callgsubr
            -539 hlineto
            200 25 109 112 146 hhcurveto
            189 61 -154 -144 9 hvcurveto
            endchar
          </CharString>
          <CharString index="2">
            rmoveto
            -62 callgsubr
            41 -34 32 -45 -44 -34 -32 -41 -39 34 -35 44 hvcurveto
            endchar
          </CharString>
          <CharString index="3">
            199 hlineto
            -557 -70 callsubr
            rlineto
            -170 hlineto
            -556 -49 callgsubr
            rlineto
            200 hlineto
            138 381 rlineto
            607 hlineto
            -550 157 rmoveto
            246 680 247 -680 rlineto
            endchar
          </CharString>
          <CharString index="4">
            rmoveto
            -80 -63 -33 -43 -42 hvcurveto
            149 16 101 72 179 hhcurveto
            11 130 -22 hlineto
            -291 -154 -164 -277 hvcurveto
            -56 vlineto
            -192 118 -121 188 180 112 117 154 148 -84 116 -169 vhcurveto
            -42 -408 rmoveto
            -84 -61 58 113 hvcurveto
            35 vlineto
            42 23 54 33 67 hhcurveto
            90 48 -56 -82 -81 -53 -62 -84 hvcurveto
            endchar
          </CharString>
          <CharString index="5">
            -78 callsubr
            vhcurveto
            hintmask 10111011
            -262 -168 -165 -155 hvcurveto
            -13 callgsubr
            91 93 81 139 149 78 -83 -129 vhcurveto
            -86 -182 vlineto
            hintmask 10111101
            -93 callsubr
            hintmask 01111101
            -71 callgsubr
            hintmask 10111101
            -25 58 -13 90 72 vvcurveto
            -97 callsubr
          </CharString>
          <CharString index="6">
            rmoveto
            139 vlineto
            228 -118 108 -177 -177 -118 -108 -228 vhcurveto
            -139 vlineto
            -229 119 -107 178 176 117 107 229 vhcurveto
            -158 153 rmoveto
            -166 vlineto
            -135 -48 -61 -87 -88 -50 61 135 vhcurveto
            166 vlineto
            133 49 61 87 88 49 -61 -133 vhcurveto
            endchar
          </CharString>
          <CharString index="7">
            vstem
            1218 -56 callsubr
            -209 hlineto
            -284 -504 -365 504 rlineto
            -208 hlineto
            256 -352 rlineto
            -147 -68 -67 -128 -203 vvcurveto
            -427 180 494 vlineto
            109 34 75 73 47 vhcurveto
            525 -725 rlineto
            207 hlineto
            -373 516 rlineto
            return
          </CharString>
          <CharString index="8">
            rmoveto
            -193 293 rlineto
            -226 -76 callgsubr
            return
          </CharString>
          <CharString index="9">
            rmoveto
            -187 -780 hlineto
            -173 -108 -78 -165 -164 -110 78 173 vhcurveto
            780 -185 -780 vlineto
            -266 197 -135 262 251 209 135 266 vhcurveto
            endchar
          </CharString>
          <CharString index="10">
            -463 -96 rmoveto
            -135 -71 82 104 133 119 67 211 hvcurveto
            152 -223 hlineto
            -83 -40 -102 -80 -134 hhcurveto
            endchar
          </CharString>
          <CharString index="11">
            rmoveto
            -790 vlineto
            -94 -43 -88 -62 -150 hhcurveto
            -100 -98 50 196 hvcurveto
            700 -187 -698 vlineto
            -288 143 -116 212 146 103 47 79 67 vhcurveto
            return
          </CharString>
          <CharString index="12">
            430 -2 26 callgsubr
            5 callgsubr
            59 -39 47 -72 hvcurveto
            return
          </CharString>
          <CharString index="13">
            -103 -85 callsubr
            680 -55 callgsubr
            680 hmoveto
            186 808 hlineto
            233 -146 137 -245 vhcurveto
            -401 -149 396 hlineto
            131 79 1 callsubr
          </CharString>
          <CharString index="14">
            -297 -190 -123 -233 -179 145 -141 221 133 105 60 73 69 hvcurveto
            return
          </CharString>
          <CharString index="15">
            1268 -89 callgsubr
            -94 callgsubr
            return
          </CharString>
          <CharString index="16">
            rmoveto
            -251 -808 -268 808 rlineto
            -204 hlineto
            385 -1071 -40 -110 rlineto
            -133 -44 -64 -45 -125 hhcurveto
            -10 -29 3 2 -11 hvcurveto
            -149 vlineto
            -6 20 55 -10 30 hhcurveto
            196 86 163 107 39 hvcurveto
            434 1249 rlineto
            endchar
          </CharString>
          <CharString index="17">
            127 -398 vlineto
            175 147 rlineto
            117 106 74 78 106 vvcurveto
            145 -107 91 -179 -188 -112 -118 -143 vhcurveto
            159 hlineto
            76 45 58 100 79 44 -46 -65 -44 -31 -56 -89 -83 vhcurveto
            -289 -271 rlineto
            -108 vlineto
            endchar
          </CharString>
          <CharString index="18">
            rmoveto
            -72 -38 -47 -59 -58 38 -46 72 72 38 46 58 59 -38 47 -72 hvcurveto
            return
          </CharString>
          <CharString index="19">
            -313 -8 170 -146 -21 26 -70 callgsubr
            hstemhm
            427 183 hintmask 10011000
            67 -8 rmoveto
            206 163 160 178 24 hvcurveto
            7 hlineto
            hintmask 00111000
            69 -330 rlineto
            175 hlineto
            -82 390 rlineto
            -12 55 -7 67 58 vvcurveto
            608 -449 -149 266 -565 vlineto
            hintmask 10011000
            -32 -167 -118 -129 -199 -6 rrcurveto
            -18 -20 1 3 -20 hvcurveto
            hintmask 01011000
            -171 vlineto
            hintmask 10011000
            -3 15 17 0 15 hhcurveto
            endchar
          </CharString>
          <CharString index="20">
            rmoveto
            377 531 151 -531 336 612 151 -799 -1165 805 150 vlineto
            endchar
          </CharString>
          <CharString index="21">
            10 149 rlineto
            10 -41 -44 6 -42 hhcurveto
            -222 -74 callgsubr
            return
          </CharString>
          <CharString index="22">
            21 -21 26 callsubr
            return
          </CharString>
          <CharString index="23">
            127 223 129 205 127 hstemhm
            79 159 -139 158 237 158 -138 158 hintmask 11110010
            533 return
          </CharString>
          <CharString index="24">
            rmoveto
            -225 hlineto
            -194 -293 rlineto
            150 hlineto
            return
          </CharString>
          <CharString index="25">
            rmoveto
            577 vlineto
            294 -159 150 -307 vhcurveto
            -295 -149 285 hlineto
            205 86 -86 -204 hvcurveto
            -589 -640 -150 968 142 vlineto
            return
          </CharString>
          <CharString index="26">
            rmoveto
            -180 -1070 hlineto
            -90 188 213 -46 192 hhcurveto
            return
          </CharString>
          <CharString index="27">
            -55 callgsubr
            577 hmoveto
            310 7 205 180 299 vvcurveto
            692 -913 -149 727 -547 vlineto
            -207 -132 -123 -197 -6 vhcurveto
            -375 -562 rmoveto
            180 869 hlineto
            108 7 68 17 60 vhcurveto
            -152 hlineto
            -24 -51 -28 -61 -135 vvcurveto
            return
          </CharString>
          <CharString index="28">
            213 -44 35 -64 -80 vvcurveto
            -89 -81 -68 -151 -115 -132 50 153 -9 vhcurveto
            28 callgsubr
            -179 156 -174 287 253 166 131 189 175 -124 88 -265 61 vhcurveto
            -204 45 -45 42 81 vvcurveto
            79 61 81 153 vhcurveto
            return
          </CharString>
          <CharString index="29">
            rmoveto
            504 vlineto
            242 -167 120 -236 return
          </CharString>
          <CharString index="30">
            -20 150 822 150 return
          </CharString>
          <CharString index="31">
            21 -21 -70 callsubr
            -20 return
          </CharString>
          <CharString index="32">
            -149 221 hlineto
            -57 -74 -33 -134 -118 vvcurveto
            -372 vlineto
            -129 -49 -58 -117 -22 -23 1 3 -24 vhcurveto
            hintmask 01011100
            -149 vlineto
            hintmask 10011100
            -5 40 35 -4 40 hhcurveto
            195 106 113 217 hvcurveto
            397 vlineto
            118 28 122 44 72 vhcurveto
            return
          </CharString>
          <CharString index="33">
            126 136 121 296 128 hstem
            73 158 273 158 vstem
            366 return
          </CharString>
          <CharString index="34">
            127 228 115 214 127 hstemhm
            63 158 -148 159 263 158 -145 159 hintmask 11110010
            517 return
          </CharString>
          <CharString index="35">
            -229 -66 199 191 hvcurveto
            42 vlineto
            189 68 201 227 148 97 -108 -134 10 vhcurveto
            177 hlineto
            return
          </CharString>
          <CharString index="36">
            233 21 -21 381 157 918 -20 return
          </CharString>
          <CharString index="37">
            1456 return
          </CharString>
          <CharString index="38">
            220 211 220 return
          </CharString>
          <CharString index="39">
            -18 -20 150 360 150 312 150 return
          </CharString>
          <CharString index="40">
            186 1178 -323 -149 137 hlineto
            return
          </CharString>
          <CharString index="41">
            121 95 95 146 hvcurveto
            return
          </CharString>
          <CharString index="42">
            rmoveto
            89 -619 -128 452 vlineto
            -349 -661 rlineto
            167 hlineto
            endchar
          </CharString>
          <CharString index="43">
            -121 185 124 vlineto
            108 34 90 63 88 vhcurveto
            -106 72 rlineto
            -112 -91 -64 -149 -121 vvcurveto
            return
          </CharString>
          <CharString index="44">
            529 147 353 149 return
          </CharString>
          <CharString index="45">
            127 556 128 hstem
            80 159 273 158 vstem
            670 return
          </CharString>
          <CharString index="46">
            210 -208 210 hstemhm
            return
          </CharString>
          <CharString index="47">
            rmoveto
            -143 hlineto
            -295 -388 rlineto
            -19 vlineto
            295 -388 rlineto
            143 hlineto
            -258 398 rlineto
            return
          </CharString>
          <CharString index="48">
            107 -16 153 890 154 return
          </CharString>
          <CharString index="49">
            484 -2 callgsubr
            -38 34 -35 45 hvcurveto
            227 30 callgsubr
            -35 -31 -42 -38 35 -35 44 hvcurveto
            return
          </CharString>
          <CharString index="50">
            156 518 156 469 157 return
          </CharString>
          <CharString index="51">
            1178 rmoveto
            return
          </CharString>
          <CharString index="52">
            vstem
            1052 -56 callsubr
            -209 hlineto
            -261 -474 -314 474 rlineto
            -209 hlineto
            704 -1028 rlineto
            -633 -150 872 94 hlineto
            -311 449 rlineto
            return
          </CharString>
          <CharString index="53">
            349 hlineto
            345 224 215 335 hvcurveto
            64 vlineto
            335 -226 216 -331 vhcurveto
            371 -615 rmoveto
            -247 -126 -153 -257 vhcurveto
            -162 return
          </CharString>
          <CharString index="54">
            hvcurveto
            -1378 vmoveto
            -328 -266 275 356 356 266 272 328 327 266 -272 -356 -356 -266 -275 -327 hvcurveto
            return
          </CharString>
          <CharString index="55">
            116 143 130 hstem
            521 159 vstem
            112 return
          </CharString>
          <CharString index="56">
            140 -45 20 callgsubr
            return
          </CharString>
          <CharString index="57">
            -21 -63 callsubr
            return
          </CharString>
          <CharString index="58">
            251 -20 rmoveto
            199 111 114 217 hvcurveto
            867 -417 -149 231 -703 vlineto
            -132 -56 -60 -108 -55 -51 5 8 -40 vhcurveto
            return
          </CharString>
          <CharString index="59">
            -194 -49 callgsubr
            return
          </CharString>
          <CharString index="60">
            -38 callsubr
            667 hmoveto
            185 808 hlineto
            233 -146 137 -244 vhcurveto
            -402 -149 396 hlineto
            131 80 -3 callsubr
            return
          </CharString>
          <CharString index="61">
            293 hstem
            return
          </CharString>
          <CharString index="62">
            -66 callgsubr
            -41 34 -32 44 hvcurveto
            return
          </CharString>
          <CharString index="63">
            42 -34 -21 callsubr
            return
          </CharString>
          <CharString index="64">
            54 21 -21 280 151 return
          </CharString>
          <CharString index="65">
            4 -106 rlineto
            178 1082 hlineto
            endchar
          </CharString>
          <CharString index="66">
            rmoveto
            -210 hlineto
            -310 -575 -310 575 rlineto
            -209 hlineto
            423 -746 rlineto
            -419 186 409 vlineto
            endchar
          </CharString>
          <CharString index="67">
            -38 callgsubr
            -186 -878 vlineto
            -602 878 rlineto
            -187 -1165 187 878 hlineto
            602 -878 rlineto
            endchar
          </CharString>
          <CharString index="68">
            hstem
            92 187 611 -81 callgsubr
            return
          </CharString>
          <CharString index="69">
            185 vstem
            return
          </CharString>
          <CharString index="70">
            rmoveto
            148 -183 -151 vlineto
            -109 -36 -89 -63 -88 vhcurveto
            106 -72 rlineto
            112 90 64 149 122 vvcurveto
            endchar
          </CharString>
          <CharString index="71">
            21 -21 941 141 318 21 callgsubr
            231 187 return
          </CharString>
          <CharString index="72">
            169 194 return
          </CharString>
          <CharString index="73">
            vstem
            319 hmoveto
            191 hlineto
            -167 1029 rlineto
            304 hlineto
            1 149 rlineto
            -572 -143 hlineto
            83 -14 rlineto
            return
          </CharString>
          <CharString index="74">
            -12 callsubr
            -14 callsubr
            return
          </CharString>
          <CharString index="75">
            -20 173 145 hstemhm
            181 180 return
          </CharString>
          <CharString index="76">
            -77 callsubr
            hstem
            return
          </CharString>
          <CharString index="77">
            -128 -232 hvcurveto
            return
          </CharString>
          <CharString index="78">
            146 hstem
            519 156 vstem
            597 -1 callsubr
            return
          </CharString>
          <CharString index="79">
            -21 162 1173 163 hstem
            126 193 865 192 vstem
            1376 706 rmoveto
            return
          </CharString>
          <CharString index="80">
            24 -46 callgsubr
            13 callgsubr
            293 -23 callgsubr
            hintmask 10111000
            return
          </CharString>
          <CharString index="81">
            149 rmoveto
            -4 -16 -39 -7 -31 hhcurveto
            -62 -57 18 112 hvcurveto
            673 202 141 -202 return
          </CharString>
          <CharString index="82">
            544 -12 callsubr
            37 489 vstem
            526 544 rmoveto
            151 -489 -151 vlineto
            endchar
          </CharString>
          <CharString index="83">
            hstem
            93 187 545 -81 callgsubr
            return
          </CharString>
          <CharString index="84">
            128 hstem
            59 619 vstem
            678 return
          </CharString>
          <CharString index="85">
            157 -22 callgsubr
            return
          </CharString>
          <CharString index="86">
            31 -44 -45 -34 -31 -42 return
          </CharString>
          <CharString index="87">
            1508 -89 callsubr
            return
          </CharString>
          <CharString index="88">
            144 65 71 159 vhcurveto
            174 -310 rmoveto
            -1082 187 1082 vlineto
            endchar
          </CharString>
          <CharString index="89">
            1476 rmoveto
            -392 -318 -324 -423 -423 318 -327 392 return
          </CharString>
          <CharString index="90">
            -1105 1331 145 hstem
            return
          </CharString>
          <CharString index="91">
            -547 -76 callsubr
            return
          </CharString>
          <CharString index="92">
            -38 callgsubr
            rmoveto
            return
          </CharString>
          <CharString index="93">
            138 187 return
          </CharString>
          <CharString index="94">
            32 callgsubr
            1139 -46 callsubr
            33 callgsubr
            547 -81 callgsubr
            return
          </CharString>
          <CharString index="95">
            151 hstem
            return
          </CharString>
          <CharString index="96">
            1357 rmoveto
            487 107 -487 hlineto
            return
          </CharString>
          <CharString index="97">
            -21 1178 -20 hstem
            194 180 return
          </CharString>
          <CharString index="98">
            -200 -80 166 206 hvcurveto
            21 vlineto
            233 80 197 202 return
          </CharString>
          <CharString index="99">
            44 -36 callgsubr
            -21 callsubr
            -41 34 -32 45 hvcurveto
            return
          </CharString>
          <CharString index="100">
            -153 -81 callsubr
            return
          </CharString>
          <CharString index="101">
            155 25 callsubr
            return
          </CharString>
          <CharString index="102">
            521 -28 150 return
          </CharString>
          <CharString index="103">
            260 132 99 45 82 71 vhcurveto
            return
          </CharString>
          <CharString index="104">
            -79 -128 hvcurveto
            return
          </CharString>
          <CharString index="105">
            -597 21 -21 1241 -46 callsubr
            156 -55 callgsubr
            return
          </CharString>
          <CharString index="106">
            -316 rmoveto
            -66 callgsubr
            return
          </CharString>
          <CharString index="107">
            -217 113 -72 137 66 48 11 9 29 vhcurveto
            endchar
          </CharString>
          <CharString index="108">
            -3 callsubr
            endchar
          </CharString>
          <CharString index="109">
            -93 vhcurveto
            106 -72 rlineto
            111 95 64 157 127 vvcurveto
            return
          </CharString>
          <CharString index="110">
            174 hlineto
            242 129 -143 -255 hvcurveto
            endchar
          </CharString>
          <CharString index="111">
            217 hlineto
            288 163 -192 -333 hvcurveto
            endchar
          </CharString>
          <CharString index="112">
            -20 callgsubr
            879 149 hstem
            return
          </CharString>
          <CharString index="113">
            -1105 -547 146 return
          </CharString>
          <CharString index="114">
            35 37 -3 -5 28 return
          </CharString>
          <CharString index="115">
            140 187 return
          </CharString>
          <CharString index="116">
            vhcurveto
            -13 callgsubr
            return
          </CharString>
          <CharString index="117">
            150 hstem
            return
          </CharString>
          <CharString index="118">
            149 hstem
            192.5 182.5 return
          </CharString>
          <CharString index="119">
            46 -20 152 671 152 347 156 hstem
            return
          </CharString>
          <CharString index="120">
            1536 return
          </CharString>
          <CharString index="121">
            318 327 423 423 -318 324 return
          </CharString>
          <CharString index="122">
            216 -52 55 -56 -99 vvcurveto
            -98 -88 -67 -166 return
          </CharString>
          <CharString index="123">
            -194 hlineto
            -205 -33 -80 -121 -246 hhcurveto
            return
          </CharString>
          <CharString index="124">
            -213 53 -80 54 91 vvcurveto
            96 79 73 167 return
          </CharString>
          <CharString index="125">
            115 vlineto
            10 callgsubr
            return
          </CharString>
          <CharString index="126">
            150 hstemhm
            return
          </CharString>
          <CharString index="127">
            -16 150 return
          </CharString>
          <CharString index="128">
            -85 callsubr
            237 186 return
          </CharString>
          <CharString index="129">
            -1105 1158 117 181 -20 hstem
            return
          </CharString>
          <CharString index="130">
            -114 -120 -76 -86 -183 hvcurveto
            endchar
          </CharString>
          <CharString index="131">
            652 rmoveto
            150 return
          </CharString>
          <CharString index="132">
            hstem
            8 callsubr
            return
          </CharString>
          <CharString index="133">
            -68 callgsubr
            hstem
            return
          </CharString>
          <CharString index="134">
            -150 vlineto
            endchar
          </CharString>
          <CharString index="135">
            283 hstem
            return
          </CharString>
          <CharString index="136">
            1392 rmoveto
            95 83 -26 -24 60 hvcurveto
            return
          </CharString>
          <CharString index="137">
            869 rcurveline
            -186 hlineto
            195 -859 return
          </CharString>
          <CharString index="138">
            hstem
            28 1283 vstem
            return
          </CharString>
          <CharString index="139">
            650 185 return
          </CharString>
        <CharString name=".notdef">
          246 -555 186 90 126 90 62 89 127 89 162 89 65 151 60 91 63 89 100 89 73 92 97 92 70 89 100 89 181 hstemhm
          251 200 89 89 -89 270 -89 89 89 208 hintmask 111111111111111101100000
          1107 2146 rmoveto
          -856 -2701 856 hlineto
          -208 2520 rmoveto
          -89 -178 -100 178 -89 -448 89 178 100 -175 89 vlineto
          267 -348 rmoveto
          -189 178 -92 -448 281 vlineto
          178 -92 rmoveto
          -89 -97 89 hlineto
          270 -165 rmoveto
          -89 -178 -189 -270 89 178 100 -178 89 vlineto
          448 -162 rmoveto
          -270 -448 91 359 179 vlineto
          89 -330 rmoveto
          -305 -448 305 89 -216 270 127 -89 -62 -92 151 vlineto
          270 -467 rmoveto
          -305 -448 305 vlineto
          hintmask 111100000000001010100000
          359 -89 rmoveto
          -270 -127 270 hlineto
          89 -151 rmoveto
          -90 -86 vlineto
          -189 -126 rlineto
          275 -90 -448 90 hlineto
          189 126 rlineto
          -189 90 hlineto
          endchar
        </CharString>
        <CharString name=".null">
          -1105 endchar
        </CharString>
        <CharString name="A">
          -71 callsubr
          31 callsubr
          1112 hmoveto
          -104 callsubr
        </CharString>
        <CharString name="A.smcp">
          -43 callsubr
          hstem
          20 1118 vstem
          948 hmoveto
          -103 callgsubr
        </CharString>
        <CharString name="AE">
          810 -20 callgsubr
          204 173 156 150 473 19 callsubr
          958.5 179.5 -149.5 177 hintmask 00000000
          hintmask 11110100
          1177 11 callgsubr
          -23 533 rlineto
          584 150 hlineto
          hintmask 11111000
          -590 hlineto
          -20 473 rlineto
          691 150 -954 hlineto
          -881 -49 callgsubr
          rlineto
          229 hlineto
          205 354 rlineto
          hintmask 11110100
          563 hlineto
          15 -354 rlineto
          885 150 hlineto
          -1363 377 rmoveto
          hintmask 11111000
          425 735 31 -735 rlineto
          endchar
        </CharString>
        <CharString name="AE.smcp">
          489 0 149 153 150 82 149 333 149 hstemhm
          766 182 -161.5 179.5 hintmask 00000000
          hintmask 11110100
          973 149 rmoveto
          -14 385 rlineto
          458 149 hlineto
          hintmask 11111000
          -463 hlineto
          -12 333 rlineto
          538 149 -809 hlineto
          -662 -1165 rlineto
          200 hlineto
          163 302 rlineto
          hintmask 11110100
          409 hlineto
          11 -302 rlineto
          730 149 hlineto
          -1069 303 rmoveto
          hintmask 11111000
          303 562 20 -562 rlineto
          endchar
        </CharString>
        <CharString name="Aacute">
          -71 callsubr
          118 293 31 callsubr
          999 1847 -83 callsubr
          382 -1554 rmoveto
          -104 callsubr
        </CharString>
        <CharString name="Aacute.smcp">
          -43 callsubr
          842 -46 callsubr
          20 1118 vstem
          908 1566 -83 callsubr
          309 -1273 rmoveto
          -103 callgsubr
        </CharString>
        <CharString name="Acircumflex">
          -71 callsubr
          128 283 31 callsubr
          673 1734 rmoveto
          150 -170 rlineto
          154 10 hlineto
          -101 callgsubr
          588 -1564 rmoveto
          -104 callsubr
        </CharString>
        <CharString name="Acircumflex.smcp">
          -43 callsubr
          852 28 callsubr
          20 1118 vstem
          582 1453 rmoveto
          150 -170 rlineto
          154 10 hlineto
          -101 callgsubr
          515 -1283 rmoveto
          -103 callgsubr
        </CharString>
        <CharString name="Adieresis">
          -71 callsubr
          141 -61 callsubr
          350 -69 callsubr
          hintmask 00000000
          hintmask 11101100
          460 1579 -89 callgsubr
          hintmask 11110010
          -94 callgsubr
          222 -1577 rmoveto
          -104 callsubr
        </CharString>
        <CharString name="Adieresis.smcp">
          -43 callsubr
          865 -61 callsubr
          259 -69 callsubr
          hintmask 00000000
          hintmask 11011000
          369 1298 -89 callgsubr
          hintmask 11100100
          -94 callgsubr
          149 -1296 rmoveto
          -103 callgsubr
        </CharString>
        <CharString name="Agrave">
          -71 callsubr
          118 293 31 callsubr
          762 1554 -99 callsubr
          510 -1554 rmoveto
          -104 callsubr
        </CharString>
        <CharString name="Agrave.smcp">
          -43 callsubr
          842 -46 callsubr
          20 1118 vstem
          671 1273 -99 callsubr
          437 -1273 rmoveto
          -103 callgsubr
        </CharString>
        <CharString name="Aring">
          -71 callsubr
          91 88 234 89 hstem
          457 100 232 99 vstem
          673 1527 -60 callgsubr
          439 -1849 rmoveto
          -104 callsubr
        </CharString>
        <CharString name="Aring.smcp">
          -43 callsubr
          815 88 234 89 hstem
          366 100 232 99 vstem
          582 1246 -60 callgsubr
          366 -1568 rmoveto
          -103 callgsubr
        </CharString>
        <CharString name="Atilde">
          -71 callsubr
          138 -51 callsubr
          320 -51 callgsubr
          hintmask 00000000
          hintmask 11101110
          544 1669 rmoveto
          -65 callgsubr
          hintmask 11110110
          -66 callsubr
          -93 callgsubr
          hintmask 11101110
          -95 callgsubr
          hintmask 11110110
          568 -1669 rmoveto
          -104 callsubr
        </CharString>
        <CharString name="Atilde.smcp">
          -43 callsubr
          862 -51 callsubr
          229 -51 callgsubr
          hintmask 00000000
          hintmask 11011100
          453 1388 rmoveto
          -65 callgsubr
          hintmask 11101100
          -66 callsubr
          -93 callgsubr
          hintmask 11011100
          -95 callgsubr
          hintmask 11101100
          495 -1388 rmoveto
          -103 callgsubr
        </CharString>
        <CharString name="B">
          171 0 156 526 153 464 157 hstemhm
          -35 callsubr
          565 194 -156 194 hintmask 11110100
          905 766 rmoveto
          hintmask 11111000
          134 57 83 110 135 vvcurveto
          271 -178 117 -297 vhcurveto
          -478 -49 callgsubr
          510 hlineto
          hintmask 11110100
          291 190 147 273 164 -91 139 -164 43 hvcurveto
          -258 533 rmoveto
          hintmask 11111000
          189 92 -69 -160 -148 -111 -87 -165 hvcurveto
          -289 464 hlineto
          hintmask 11110100
          316 -1143 rmoveto
          -316 526 325 hlineto
          195 83 -102 -162 -160 -105 -102 -182 hvcurveto
          endchar
        </CharString>
        <CharString name="B.smcp">
          0 -20 callgsubr
          381 140 343 151 hstemhm
          -14 callsubr
          464 187 -155 187 hintmask 11110100
          794 608 rmoveto
          hintmask 11111000
          116 44 66 89 107 vvcurveto
          217 -167 100 -264 vhcurveto
          -407 -1165 447 hlineto
          hintmask 11110100
          259 164 113 221 124 -73 115 -141 35 hvcurveto
          -249 406 rmoveto
          hintmask 11111000
          158 86 -54 -120 -111 -89 -58 -142 hvcurveto
          -233 343 hlineto
          hintmask 11110100
          260 -864 rmoveto
          -260 381 269 hlineto
          159 68 -79 -117 -115 -84 -70 -152 hvcurveto
          endchar
        </CharString>
        <CharString name="C">
          228 -20 156 1183 21 callgsubr
          119 195 vstem
          1241 462 rmoveto
          16 callsubr
          -69 callgsubr
          -407 227 -267 342 351 171 207 275 31 vhcurveto
          endchar
        </CharString>
        <CharString name="C.smcp">
          32 callgsubr
          896 -12 callsubr
          97 -38 callsubr
          1073 377 rmoveto
          22 callgsubr
          -64 callgsubr
          -334 194 -213 301 302 154 165 228 25 vhcurveto
          endchar
        </CharString>
        <CharString name="C.ss06">
          306 -21 156 1185 21 callgsubr
          126 195 vstem
          1310 462 rmoveto
          -194 hlineto
          -204 -32 -96 -123 -234 hhcurveto
          -251 -182 230 332 hvcurveto
          63 vlineto
          331 163 229 261 224 117 -129 -202 30 vhcurveto
          195 hlineto
          288 -31 -205 200 -330 hhcurveto
          -364 -255 -288 -431 hvcurveto
          -61 vlineto
          -431 272 -287 356 340 185 207 276 31 vhcurveto
          endchar
        </CharString>
        <CharString name="Ccedilla">
          228 -445 106 323 152 1183 157 hstemhm
          119 195 434 145 hintmask 00000000
          hintmask 11111000
          688 136 rmoveto
          -69 callgsubr
          -378 196 -257 302 -35 vhcurveto
          -30 -129 -83 callgsubr
          10 45 309 24 153 198 29 258 rlinecurve
          16 callsubr
          endchar
        </CharString>
        <CharString name="Ccedilla.smcp">
          43 -439 106 321 146 896 151 hstemhm
          97 185 372 145 hintmask 00000000
          hintmask 11111000
          592 134 rmoveto
          -64 callgsubr
          -307 164 -205 261 -31 vhcurveto
          -29 -127 -83 callgsubr
          10 44 260 21 134 158 23 211 rlinecurve
          22 callgsubr
          endchar
        </CharString>
        <CharString name="D">
          239 0 156 1143 -22 callsubr
          668 192 vstem
          580 -29 callgsubr
          -411 -49 callgsubr
          -54 callgsubr
          1143 4 callsubr
        </CharString>
        <CharString name="D.smcp">
          47 -20 callgsubr
          864 -18 callgsubr
          -1165 -54 callsubr
          864 3 callsubr
        </CharString>
        <CharString name="D.ss06">
          323 0 156 1143 21 callgsubr
          178 194 730 196 vstem
          612 -29 callgsubr
          -434 -49 callgsubr
          417 hlineto
          410 293 273 433 hvcurveto
          43 vlineto
          433 -297 274 -389 vhcurveto
          490 -750 rmoveto
          -329 -190 -221 -318 vhcurveto
          -222 1143 239 hlineto
          295 196 -202 -346 hvcurveto
          endchar
        </CharString>
        <CharString name="E">
          59 0 -57 callsubr
          hstem
          169 194 vstem
          363 156 -86 callgsubr
        </CharString>
        <CharString name="E.smcp">
          -57 callgsubr
          hstem
          138 -81 callgsubr
          325 150 -87 callsubr
        </CharString>
        <CharString name="Eacute">
          59 0 -57 callsubr
          109 293 -22 callgsubr
          vstem
          945 1858 -83 callsubr
          -313 -1409 -86 callgsubr
        </CharString>
        <CharString name="Eacute.smcp">
          -57 callgsubr
          108 -46 callsubr
          -14 callsubr
          vstem
          863 1566 -83 callsubr
          -269 -1123 -87 callsubr
        </CharString>
        <CharString name="Ecircumflex">
          59 0 -57 callsubr
          119 283 -22 callgsubr
          vstem
          619 1745 rmoveto
          150 -170 rlineto
          154 10 hlineto
          -101 callgsubr
          -107 -1419 -86 callgsubr
        </CharString>
        <CharString name="Ecircumflex.smcp">
          -57 callgsubr
          118 28 callsubr
          -14 callsubr
          vstem
          537 1453 rmoveto
          150 -170 rlineto
          154 10 hlineto
          -101 callgsubr
          -63 -1133 -87 callsubr
        </CharString>
        <CharString name="Edieresis">
          59 0 -57 callsubr
          132 -61 callsubr
          -35 callsubr
          -67 -69 callsubr
          hintmask 00000000
          hintmask 11101010
          406 1590 -89 callgsubr
          hintmask 11110101
          -94 callgsubr
          -473 -1432 -86 callgsubr
        </CharString>
        <CharString name="Edieresis.smcp">
          -57 callgsubr
          131 -61 callsubr
          -14 callsubr
          -111 -69 callsubr
          hintmask 00000000
          hintmask 11101010
          324 1298 -89 callgsubr
          hintmask 11110101
          -94 callgsubr
          -429 -1146 -87 callsubr
        </CharString>
        <CharString name="Egrave">
          59 0 -57 callsubr
          109 293 -22 callgsubr
          vstem
          708 1565 -99 callsubr
          -185 -1409 -86 callgsubr
        </CharString>
        <CharString name="Egrave.smcp">
          -57 callgsubr
          108 -46 callsubr
          -14 callsubr
          vstem
          626 1273 -99 callsubr
          -141 -1123 -87 callsubr
        </CharString>
        <CharString name="Eth">
          239 0 156 510 150 483 -22 callsubr
          668 192 vstem
          580 -29 callgsubr
          -411 -640 -163 -150 163 -666 -54 callgsubr
          510 281 150 -281 483 4 callsubr
        </CharString>
        <CharString name="Eth.smcp">
          47 -20 callgsubr
          364 150 350 -18 callgsubr
          -501 -206 -150 206 -514 -54 callsubr
          364 245 150 -245 350 3 callsubr
        </CharString>
        <CharString name="Euro">
          46 -20 155 407 123 138 124 393 156 hstem
          273 195 vstem
          815 135 rmoveto
          -207 -135 132 275 -5 hvcurveto
          383 123 -383 138 383 124 -382 hlineto
          267 9 131 126 205 hhcurveto
          77 76 -14 -21 66 hvcurveto
          20 160 rlineto
          19 -82 -75 12 -84 hhcurveto
          -310 -216 -184 -365 -12 hvcurveto
          -178 -124 177 -138 -177 -123 177 hlineto
          -374 7 220 -188 313 hhcurveto
          83 83 11 19 74 hvcurveto
          -20 159 rlineto
          -22 -67 -74 -12 -77 hhcurveto
          endchar
        </CharString>
        <CharString name="Euro.smcp">
          -108 20 callsubr
          272 121 109 121 274 10 callsubr
          218 -55 callgsubr
          698 134 rmoveto
          -174 -95 92 180 -21 hvcurveto
          409 121 -413 109 413 121 -409 hlineto
          180 21 93 94 174 hhcurveto
          79 63 -7 -21 68 hvcurveto
          21 147 rlineto
          19 -81 -66 12 -84 hhcurveto
          -275 -171 -149 -275 -28 hvcurveto
          -155 -121 151 -109 -151 -121 155 hlineto
          -276 27 173 -146 276 hhcurveto
          83 73 11 20 73 hvcurveto
          -27 148 rlineto
          -19 -69 -55 -10 -78 hhcurveto
          endchar
        </CharString>
        <CharString name="F">
          27 21 -21 644 156 499 -22 callsubr
          vstem
          1071 1299 rmoveto
          157 -902 27 callgsubr
          644 609 156 -609 499 vlineto
          endchar
        </CharString>
        <CharString name="F.smcp">
          -134 21 -21 500 152 362 -33 callsubr
          vstem
          923 1014 rmoveto
          151 -785 -1165 187 500 518 152 -518 362 vlineto
          endchar
        </CharString>
        <CharString name="G">
          290 -20 156 434 155 594 21 callgsubr
          122 195 735 193 vstem
          1245 191 rmoveto
          534 -529 -155 336 -328 vlineto
          -44 -39 -76 -62 -206 hhcurveto
          -248 -166 199 336 hvcurveto
          117 vlineto
          327 121 204 270 222 94 -132 -157 27 vhcurveto
          194 hlineto
          258 -37 -167 188 -334 hhcurveto
          -376 -209 -256 -434 hvcurveto
          -115 vlineto
          -435 253 -256 355 327 133 132 79 55 vhcurveto
          endchar
        </CharString>
        <CharString name="G.smcp">
          91 20 callsubr
          314 143 439 -12 callsubr
          99 188 605 -55 callgsubr
          1078 11 callgsubr
          441 -466 -143 280 -239 vlineto
          -30 -32 -65 -45 -164 hhcurveto
          -210 -134 148 258 hvcurveto
          87 vlineto
          253 104 150 219 183 77 -94 -123 23 vhcurveto
          185 hlineto
          214 -31 -143 154 -296 hhcurveto
          -321 -188 -206 -350 hvcurveto
          -85 vlineto
          -351 219 -205 309 279 122 102 64 50 vhcurveto
          endchar
        </CharString>
        <CharString name="G.ss06">
          350 -21 156 434 154 597 21 callgsubr
          126 195 797 194 vstem
          1312 191 rmoveto
          532 -528 -154 334 -327 vlineto
          -44 -36 -105 -63 -194 hhcurveto
          -263 -199 220 360 hvcurveto
          29 vlineto
          349 176 227 250 247 92 -133 -157 31 vhcurveto
          195 hlineto
          258 -40 -170 189 -355 hhcurveto
          -358 -263 -278 -457 hvcurveto
          -27 vlineto
          -458 287 -278 370 314 162 133 79 53 vhcurveto
          endchar
        </CharString>
        <CharString name="H">
          356 21 -21 674 156 626 -20 -22 callgsubr
          732 194 vstem
          1095 -29 callgsubr
          -626 -732 626 -194 27 callgsubr
          674 732 -674 194 -70 callsubr
          vlineto
          endchar
        </CharString>
        <CharString name="H.smcp">
          147 21 -21 499 -33 callsubr
          602 -55 callgsubr
          927 -15 callsubr
          -515 -602 515 -187 -1165 187 499 602 -499 186 -38 callgsubr
          vlineto
          endchar
        </CharString>
        <CharString name="I">
          -16 callsubr
          hstem
          183 194 vstem
          377 hmoveto
          -70 callsubr
          -48 callsubr
          vlineto
          endchar
        </CharString>
        <CharString name="I.smcp">
          -616 -9 callgsubr
          151 -81 callgsubr
          338 hmoveto
          -48 callgsubr
        </CharString>
        <CharString name="Iacute">
          -16 callsubr
          129 -46 callsubr
          183 194 vstem
          380 1858 -91 callgsubr
          -228 -1858 rmoveto
          -70 callsubr
          -48 callsubr
          vlineto
          endchar
        </CharString>
        <CharString name="Iacute.smcp">
          -1 callgsubr
          346 1566 -91 callgsubr
          -233 -1566 rmoveto
          -48 callgsubr
        </CharString>
        <CharString name="Icircumflex">
          -16 callsubr
          139 28 callsubr
          183 194 vstem
          583 1585 rmoveto
          -101 callgsubr
          149 170 150 -170 rlineto
          154 hlineto
          -206 -1575 rmoveto
          -70 callsubr
          -48 callsubr
          vlineto
          endchar
        </CharString>
        <CharString name="Icircumflex.smcp">
          -616 21 -21 1283 28 callsubr
          151 -81 callgsubr
          549 1293 rmoveto
          -101 callgsubr
          149 170 150 -170 rlineto
          154 hlineto
          -211 -1283 rmoveto
          -48 callgsubr
        </CharString>
        <CharString name="Idieresis">
          -16 callsubr
          152 -61 callsubr
          -44 220 7 194 10 220 hintmask 00000000
          hintmask 11011000
          66 1800 -89 callsubr
          hintmask 11100110
          -95 callsubr
          hintmask 11010100
          -119 -1798 rmoveto
          -70 callsubr
          -48 callsubr
          vlineto
          endchar
        </CharString>
        <CharString name="Idieresis.smcp">
          -616 21 -21 1296 -61 callsubr
          -78 220 9 187 15 220 hintmask 00000000
          hintmask 10111000
          32 -20 callsubr
          hintmask 11001100
          -95 callsubr
          hintmask 10101000
          -124 -1506 rmoveto
          -48 callgsubr
        </CharString>
        <CharString name="Igrave">
          -16 callsubr
          129 -46 callsubr
          183 194 vstem
          368 1565 -99 callsubr
          169 -1565 rmoveto
          -70 callsubr
          -48 callsubr
          vlineto
          endchar
        </CharString>
        <CharString name="Igrave.smcp">
          -1 callgsubr
          334 1273 -99 callsubr
          164 -1273 rmoveto
          -48 callgsubr
        </CharString>
        <CharString name="J">
          25 -20 156 1320 -20 hstem
          53 194 532 194 vstem
          779 -29 callgsubr
          -1030 vlineto
          -190 -114 -100 -152 -156 -110 83 184 vhcurveto
          -194 hlineto
          -287 192 -136 268 268 192 157 289 vhcurveto
          1030 vlineto
          endchar
        </CharString>
        <CharString name="J.smcp">
          -130 -16 10 callsubr
          43 188 427 188 vstem
          658 -15 callsubr
          -826 vlineto
          -129 -82 -76 -119 -136 -90 58 139 vhcurveto
          -188 hlineto
          -236 178 -111 236 224 165 133 222 vhcurveto
          826 vlineto
          endchar
        </CharString>
        <CharString name="K">
          180 -76 callsubr
          -22 callgsubr
          vstem
          1054 hmoveto
          232 hlineto
          -616 813 572 643 rlineto
          -234 hlineto
          -645 -718 rlineto
          718 -194 27 callgsubr
          493 vlineto
          178 184 rlineto
          endchar
        </CharString>
        <CharString name="K.alt">
          211 21 -21 655 159 642 -20 hstem
          178 194 vstem
          1073 hmoveto
          238 hlineto
          -598 751 556 705 rlineto
          -241 hlineto
          -507 -642 rlineto
          -149 642 -194 27 callgsubr
          655 176 hlineto
          endchar
        </CharString>
        <CharString name="K.alt2">
          237 -76 callsubr
          hstem
          178 194 vstem
          1276 hmoveto
          -700 747 660 709 rlineto
          -242 hlineto
          -611 -647 rlineto
          -11 647 -194 27 callgsubr
          692 hlineto
          665 -692 rlineto
          endchar
        </CharString>
        <CharString name="K.smcp">
          4 -9 callgsubr
          -14 callsubr
          vstem
          885 hmoveto
          227 hlineto
          -512 647 478 518 rlineto
          -229 hlineto
          -395 -412 -129 -142 rlineto
          554 -187 -1165 187 378 vlineto
          147 142 rlineto
          endchar
        </CharString>
        <CharString name="L">
          -2 0 156 1300 -20 -22 callgsubr
          vstem
          363 156 rmoveto
          1300 -48 callsubr
          884 156 vlineto
          endchar
        </CharString>
        <CharString name="L.smcp">
          -156 0 10 callsubr
          -14 callsubr
          vstem
          325 11 callgsubr
          1015 -187 -1165 770 150 vlineto
          endchar
        </CharString>
        <CharString name="M">
          684 -76 callsubr
          hstem
          169 193 1064 193 vstem
          1619 -29 callgsubr
          -250 hlineto
          -475 -1190 -475 1190 rlineto
          -250 -49 callgsubr
          193 569 hlineto
          -18 607 476 -1176 rlineto
          147 hlineto
          477 1176 -18 -607 rlineto
          -569 193 vlineto
          endchar
        </CharString>
        <CharString name="M.smcp">
          433 -9 callgsubr
          138 186 890 -55 callgsubr
          1400 -15 callsubr
          -242 hlineto
          -389 -913 -389 913 rlineto
          -242 -1165 186 403 hlineto
          -19 524 395 -927 rlineto
          137 hlineto
          396 931 -19 -528 rlineto
          -403 186 vlineto
          endchar
        </CharString>
        <CharString name="N">
          356 -76 callsubr
          -22 callgsubr
          734 192 vstem
          1289 hmoveto
          -40 callgsubr
        </CharString>
        <CharString name="N.smcp">
          146 -9 callgsubr
          -14 callsubr
          602 -55 callgsubr
          1113 hmoveto
          -40 callsubr
        </CharString>
        <CharString name="Ntilde">
          356 -76 callsubr
          138 -51 callsubr
          -35 callsubr
          10 -51 callgsubr
          16 192 hintmask 00000000
          hintmask 11101011
          1081 1815 rmoveto
          -93 callgsubr
          hintmask 11011101
          -95 callgsubr
          -65 callgsubr
          hintmask 11101011
          -66 callsubr
          hintmask 11101001
          208 -1815 rmoveto
          -40 callgsubr
        </CharString>
        <CharString name="Ntilde.smcp">
          146 21 -21 1293 -51 callsubr
          -14 callsubr
          -54 -51 callgsubr
          -52 186 hintmask 00000000
          hintmask 11010100
          979 1534 rmoveto
          -93 callgsubr
          hintmask 10101010
          -95 callgsubr
          -65 callgsubr
          hintmask 11010100
          -66 callsubr
          hintmask 11010010
          134 -1534 rmoveto
          -40 callsubr
        </CharString>
        <CharString name="O">
          -56 callgsubr
          -10 callgsubr
          1290 681 -107 callgsubr
        </CharString>
        <CharString name="O.smcp">
          -59 callsubr
          hstem
          -21 callgsubr
          vstem
          1116 548 -107 callsubr
        </CharString>
        <CharString name="O.ss06">
          400 -28 callsubr
          44 vlineto
          426 17 callgsubr
          -426 vhcurveto
          -44 vlineto
          -427 280 -300 347 357 266 300 427 vhcurveto
          -192 46 rmoveto
          -46 vlineto
          -338 -179 -227 -252 -239 -195 227 338 vhcurveto
          46 vlineto
          335 16 callgsubr
          -335 vhcurveto
          endchar
        </CharString>
        <CharString name="OE">
          849 -21 150 -129 -57 callsubr
          -130 151 hstemhm
          105 187 584 194 hintmask 01110110
          1070 156 rmoveto
          518 629 156 -629 469 721 157 -837 vlineto
          hintmask 10101110
          11 -90 -102 10 -102 hhcurveto
          -331 -224 -244 -353 hvcurveto
          -304 vlineto
          -353 226 -244 331 vhcurveto
          hintmask 01110110
          102 100 11 10 90 hvcurveto
          847 156 hlineto
          hintmask 10101110
          -1509 420 rmoveto
          306 vlineto
          290 142 154 226 75 73 -6 -9 68 vhcurveto
          -1167 vlineto
          -9 -67 -73 -6 -74 hhcurveto
          -226 -144 156 291 hvcurveto
          endchar
        </CharString>
        <CharString name="Oacute">
          -56 callgsubr
          80 293 -10 callgsubr
          808 1849 -91 callgsubr
          257 -1168 -107 callgsubr
        </CharString>
        <CharString name="Oacute.smcp">
          -59 callsubr
          92 -46 callsubr
          -21 callgsubr
          vstem
          708 1566 -91 callgsubr
          183 -1018 -107 callsubr
        </CharString>
        <CharString name="Ocircumflex">
          -56 callgsubr
          90 283 -10 callgsubr
          1011 1576 rmoveto
          -101 callgsubr
          149 170 150 -170 rlineto
          154 hlineto
          279 -885 -107 callgsubr
        </CharString>
        <CharString name="Ocircumflex.smcp">
          -59 callsubr
          102 28 callsubr
          -21 callgsubr
          vstem
          911 1293 rmoveto
          -101 callgsubr
          149 170 150 -170 rlineto
          154 hlineto
          205 -735 -107 callsubr
        </CharString>
        <CharString name="Odieresis">
          -56 callgsubr
          103 -61 callsubr
          118 193 73 -69 callsubr
          63 192 hintmask 11011101
          494 1791 -89 callsubr
          hintmask 11101111
          -95 callsubr
          366 -1108 -107 callgsubr
        </CharString>
        <CharString name="Odieresis.smcp">
          -59 callsubr
          115 -61 callsubr
          96 185 3 -69 callsubr
          -4 185 hintmask 00000000
          hintmask 11010101
          394 -20 callsubr
          hintmask 11101010
          -95 callsubr
          hintmask 11001001
          292 -958 -107 callsubr
        </CharString>
        <CharString name="Ograve">
          -56 callgsubr
          80 293 -10 callgsubr
          796 1556 -99 callsubr
          654 -875 -107 callgsubr
        </CharString>
        <CharString name="Ograve.smcp">
          -59 callsubr
          92 -46 callsubr
          -21 callgsubr
          vstem
          696 1273 -99 callsubr
          580 -725 -107 callsubr
        </CharString>
        <CharString name="Oslash">
          305 -20 162 1059 -20 132 163 -10 callgsubr
          1310 1516 rmoveto
          -141 hlineto
          -102 -164 rlineto
          81 -96 -124 43 -143 hhcurveto
          -345 -241 -266 -436 hvcurveto
          -93 vlineto
          -236 71 -185 120 -121 vhcurveto
          -145 -232 rlineto
          144 hlineto
          97 155 rlineto
          -54 86 102 -28 113 hhcurveto
          355 229 265 436 hvcurveto
          93 vlineto
          202 -50 166 -88 119 vhcurveto
          -841 -580 rmoveto
          95 vlineto
          347 155 190 238 111 91 -38 -74 66 vhcurveto
          -564 -904 rlineto
          -62 91 -35 129 164 vvcurveto
          787 95 rmoveto
          -95 vlineto
          -349 -142 -190 -250 -81 -71 22 43 -59 vhcurveto
          548 881 rlineto
          36 -83 19 -104 -125 vvcurveto
          endchar
        </CharString>
        <CharString name="Oslash.smcp">
          -59 callsubr
          26 -20 hstemhm
          -21 callgsubr
          hintmask 11011000
          983 1022 rmoveto
          hintmask 10111000
          124 185 rlineto
          -150 hlineto
          hintmask 11011000
          -69 -103 rlineto
          50 -78 -96 27 -109 hhcurveto
          -301 -208 -214 -351 hvcurveto
          -68 vlineto
          -176 53 -142 91 -97 vhcurveto
          -128 -191 rlineto
          151 hlineto
          75 112 rlineto
          -46 76 91 -24 102 hhcurveto
          307 202 213 351 hvcurveto
          68 vlineto
          171 -48 138 -85 97 vhcurveto
          -702 -474 rmoveto
          70 vlineto
          263 127 146 197 76 65 -20 -39 51 vhcurveto
          -456 -683 rlineto
          -39 67 -21 88 108 vvcurveto
          650 hmoveto
          -264 -118 -147 -206 -69 -60 18 34 -50 vhcurveto
          452 678 rlineto
          33 -65 18 -83 -101 vvcurveto
          endchar
        </CharString>
        <CharString name="Otilde">
          -56 callgsubr
          100 -51 callsubr
          118 193 43 -51 callgsubr
          36 192 hintmask 11101011
          1062 1817 rmoveto
          -93 callgsubr
          hintmask 11011111
          -95 callgsubr
          -65 callgsubr
          hintmask 11101011
          -66 callsubr
          228 -1136 -107 callgsubr
        </CharString>
        <CharString name="Otilde.smcp">
          -59 callsubr
          112 -51 callsubr
          96 185 -27 -51 callgsubr
          -31 185 hintmask 00000000
          hintmask 11101010
          962 1534 rmoveto
          -93 callgsubr
          hintmask 11010101
          -95 callgsubr
          -65 callgsubr
          hintmask 11101010
          -66 callsubr
          hintmask 11101001
          154 -986 -107 callsubr
        </CharString>
        <CharString name="P">
          188 21 -21 571 156 572 -22 callsubr
          661 194 vstem
          707 -29 callgsubr
          -538 27 callgsubr
          571 344 hlineto
          330 181 160 281 259 -181 185 -330 hvcurveto
          -729 vmoveto
          -344 572 344 hlineto
          225 92 -139 -150 -165 -92 -118 -225 hvcurveto
          endchar
        </CharString>
        <CharString name="P.smcp">
          12 21 -21 439 151 424 -33 callsubr
          540 -81 callgsubr
          606 -15 callsubr
          -468 -1165 187 439 281 hlineto
          286 160 135 224 214 -160 153 -286 hvcurveto
          -575 vmoveto
          -281 424 281 hlineto
          183 76 -104 23 callsubr
        </CharString>
        <CharString name="Q">
          -56 callgsubr
          hstem
          109 194 786 193 vstem
          1287 -127 rmoveto
          -260 205 rlineto
          161 115 94 209 279 vvcurveto
          93 vlineto
          436 -231 266 -356 -345 -241 -266 -436 vhcurveto
          -93 vlineto
          -436 243 -265 345 53 51 6 12 47 vhcurveto
          308 -245 rlineto
          -853 928 rmoveto
          95 vlineto
          347 155 190 237 249 145 -190 -347 vhcurveto
          -95 vlineto
          -349 -142 -190 -250 -237 -157 190 349 vhcurveto
          endchar
        </CharString>
        <CharString name="Q.smcp">
          -59 callsubr
          hstem
          89 186 32 callsubr
          vstem
          1113 -93 rmoveto
          -218 161 rlineto
          136 93 79 166 221 vvcurveto
          68 vlineto
          351 -203 214 -308 -301 -209 -214 -351 vhcurveto
          -68 vlineto
          -351 211 -213 301 43 42 4 8 38 vhcurveto
          263 -199 rlineto
          -712 751 rmoveto
          70 vlineto
          263 126 146 198 206 120 -146 -263 vhcurveto
          -70 vlineto
          -264 -118 -147 -206 -198 -128 147 264 vhcurveto
          endchar
        </CharString>
        <CharString name="Q.ss06">
          403 -28 callsubr
          42 vlineto
          428 17 callgsubr
          -428 vhcurveto
          -42 vlineto
          -428 280 -299 347 41 39 4 7 38 vhcurveto
          306 -242 132 120 -250 195 rlineto
          193 118 124 232 293 vvcurveto
          -1057 hmoveto
          44 vlineto
          337 16 callgsubr
          -337 vhcurveto
          -44 vlineto
          -339 -179 -226 -252 -239 -195 226 339 vhcurveto
          endchar
        </CharString>
        <CharString name="R">
          156 21 -21 590 156 553 -22 callsubr
          604 195 vstem
          884 630 rmoveto
          174 67 104 142 180 vvcurveto
          284 -183 153 -328 vhcurveto
          -482 27 callgsubr
          590 339 hlineto
          316 -590 rlineto
          208 12 hlineto
          -863 734 rmoveto
          553 288 vlineto
          221 95 -111 -169 -151 -104 -122 -207 hvcurveto
          endchar
        </CharString>
        <CharString name="R.alt">
          251 0 25 604 156 514 157 hstemhm
          178 194 619 194 -184 194 hintmask 11111000
          1185 236 rmoveto
          133 vlineto
          163 -58 128 -171 53 vhcurveto
          hintmask 11110100
          153 65 86 112 151 vvcurveto
          271 -173 144 -318 vhcurveto
          -526 27 callgsubr
          629 357 hlineto
          hintmask 11111000
          163 99 -104 -158 hvcurveto
          -129 vlineto
          -53 2 -131 60 -54 vhcurveto
          199 25 hlineto
          -52 49 -15 81 81 vvcurveto
          hintmask 11110100
          -501 549 rmoveto
          -312 514 330 hlineto
          212 87 -101 -157 -164 -87 -92 -230 hvcurveto
          endchar
        </CharString>
        <CharString name="R.smcp">
          -7 21 -21 450 150 414 -33 callsubr
          497 -81 callgsubr
          775 493 rmoveto
          146 55 88 107 155 vvcurveto
          228 -162 127 -283 vhcurveto
          -426 -1165 187 450 277 hlineto
          260 -450 rlineto
          200 10 hlineto
          -737 1004 rmoveto
          239 hlineto
          179 79 -86 -125 -116 -85 -87 -168 hvcurveto
          -244 hlineto
          endchar
        </CharString>
        <CharString name="S">
          111 -20 156 1183 157 hstemhm
          81 194 -148 195 619 195 -192 195 hintmask 11010100
          598 651 rmoveto
          275 -80 71 -66 -137 vvcurveto
          -142 -112 -90 -201 vhcurveto
          hintmask 11100100
          -187 -169 86 200 hvcurveto
          -194 hlineto
          -291 281 -151 269 308 200 153 237 226 -148 128 -330 93 vhcurveto
          hintmask 11011000
          -239 67 -100 76 123 vvcurveto
          135 95 101 204 218 102 -119 -164 vhcurveto
          195 hlineto
          228 -185 212 -330 -298 -196 -169 -227 vhcurveto
          hintmask 11010100
          -226 184 -120 287 -83 vhcurveto
          endchar
        </CharString>
        <CharString name="S.smcp">
          -49 -16 149 898 19 callsubr
          67 188 -148 187 506 187 -185 188 hintmask 11010100
          531 505 rmoveto
          15 callsubr
          vhcurveto
          hintmask 11100100
          -160 -133 61 155 hvcurveto
          -188 hlineto
          -246 245 -119 236 266 176 121 195 191 -144 107 -259 66 vhcurveto
          hintmask 11011000
          17 callsubr
          176 84 -86 -119 9 callsubr
          194 -165 161 -280 -261 -174 -133 -187 vhcurveto
          hintmask 11010100
          -193 166 -100 258 -63 vhcurveto
          endchar
        </CharString>
        <CharString name="T">
          117 21 -21 1299 21 callgsubr
          516 192 vstem
          1175 -29 callgsubr
          -1125 -157 466 -1299 192 1299 467 hlineto
          endchar
        </CharString>
        <CharString name="T.smcp">
          -42 21 -21 1014 -12 callsubr
          437 -55 callgsubr
          1021 -15 callsubr
          -980 -151 396 -1014 186 1014 398 hlineto
          endchar
        </CharString>
        <CharString name="Thorn">
          105 21 -21 314 150 549 150 293 -20 hstem
          166 187 578 -81 callgsubr
          630 1163 rmoveto
          -277 293 -187 -49 callgsubr
          187 314 277 hlineto
          315 173 180 244 245 -173 180 -315 hvcurveto
          -699 vmoveto
          -277 549 277 hlineto
          214 87 -137 -140 -136 -87 -136 -214 hvcurveto
          endchar
        </CharString>
        <CharString name="Thorn.smcp">
          -88 21 -21 236 152 423 152 hstem
          -14 callsubr
          440 -81 callgsubr
          506 963 rmoveto
          -181 202 -187 -1165 187 236 181 hlineto
          286 160 136 224 213 -160 154 -286 hvcurveto
          -575 vmoveto
          -181 423 181 hlineto
          183 76 -103 23 callsubr
        </CharString>
        <CharString name="U">
          -39 callgsubr
          -31 callgsubr
          1195 1456 -98 callgsubr
        </CharString>
        <CharString name="U.smcp">
          32 callgsubr
          hstem
          33 callgsubr
          547 -81 callgsubr
          1035 1165 -98 callsubr
        </CharString>
        <CharString name="Uacute">
          -39 callgsubr
          118 293 -31 callgsubr
          768 1847 -91 callgsubr
          202 -391 -98 callgsubr
        </CharString>
        <CharString name="Uacute.smcp">
          -13 callsubr
          676 1566 -91 callgsubr
          134 -401 -98 callsubr
        </CharString>
        <CharString name="Ucircumflex">
          -39 callgsubr
          128 283 -31 callgsubr
          971 1574 rmoveto
          -101 callgsubr
          149 170 150 -170 rlineto
          154 hlineto
          224 -108 -98 callgsubr
        </CharString>
        <CharString name="Ucircumflex.smcp">
          32 callgsubr
          1149 28 callsubr
          33 callgsubr
          547 -81 callgsubr
          879 1293 rmoveto
          -101 callgsubr
          149 170 150 -170 rlineto
          154 hlineto
          156 -118 -98 callsubr
        </CharString>
        <CharString name="Udieresis">
          -39 callgsubr
          141 -61 callsubr
          140 192 12 -69 callsubr
          5 195 hintmask 00000000
          hintmask 11011101
          454 1789 -89 callsubr
          hintmask 11101010
          -95 callsubr
          hintmask 11011001
          311 -331 -98 callgsubr
        </CharString>
        <CharString name="Udieresis.smcp">
          32 callgsubr
          1162 -61 callsubr
          33 callgsubr
          -49 -69 callsubr
          -55 -30 callgsubr
          hintmask 10101010
          362 -20 callsubr
          hintmask 11010100
          -95 callsubr
          hintmask 10010010
          243 -341 -98 callsubr
        </CharString>
        <CharString name="Ugrave">
          -39 callgsubr
          118 293 -31 callgsubr
          756 1554 -99 callsubr
          599 -98 -98 callgsubr
        </CharString>
        <CharString name="Ugrave.smcp">
          -13 callsubr
          664 1273 -99 callsubr
          531 -108 -98 callsubr
        </CharString>
        <CharString name="V">
          200 -76 callsubr
          hstem
          29 1249 vstem
          1067 -29 callgsubr
          -415 -1200 -412 1200 rlineto
          -211 hlineto
          538 -49 callgsubr
          rlineto
          172 hlineto
          539 -70 callsubr
          rlineto
          endchar
        </CharString>
        <CharString name="V.smcp">
          24 -9 callgsubr
          20 1089 vstem
          909 -15 callsubr
          -319 -876 -26 -92 -26 94 -317 874 rlineto
          -201 hlineto
          457 -1165 rlineto
          175 hlineto
          457 -38 callgsubr
          rlineto
          endchar
        </CharString>
        <CharString name="W">
          712 -76 callsubr
          hstem
          61 1712 vstem
          1578 -29 callgsubr
          -224 -997 -30 -194 -41 174 -280 1017 rlineto
          -163 hlineto
          -288 -1017 -40 -170 -28 189 -229 998 rlineto
          -194 hlineto
          352 -49 callgsubr
          rlineto
          177 hlineto
          310 1063 23 108 22 -108 299 -1063 rlineto
          177 hlineto
          352 -70 callsubr
          rlineto
          endchar
        </CharString>
        <CharString name="W.smcp">
          452 -9 callgsubr
          49 1472 vstem
          1336 -15 callsubr
          -197 -868 -12 -80 -13 58 -243 890 rlineto
          -167 hlineto
          -247 -887 -14 -61 -11 78 -198 870 rlineto
          -185 hlineto
          297 -1165 rlineto
          175 hlineto
          267 918 1 3 rlineto
          -3 vlineto
          260 -918 rlineto
          174 hlineto
          298 -38 callgsubr
          rlineto
          endchar
        </CharString>
        <CharString name="X">
          180 -76 callsubr
          hstem
          58 1173 vstem
          645 897 rmoveto
          -349 559 rlineto
          -228 hlineto
          461 -721 -471 -735 rlineto
          228 hlineto
          359 570 357 -570 rlineto
          229 hlineto
          -470 735 459 721 rlineto
          -227 hlineto
          endchar
        </CharString>
        <CharString name="X.smcp">
          4 -9 callgsubr
          39 1036 vstem
          552 729 rmoveto
          -284 436 rlineto
          -221 hlineto
          397 -577 -405 -588 rlineto
          221 hlineto
          295 444 297 -444 rlineto
          223 hlineto
          -409 588 394 577 rlineto
          -222 hlineto
          endchar
        </CharString>
        <CharString name="Y">
          125 -76 callsubr
          hstem
          516 195 vstem
          614 724 -42 callgsubr
        </CharString>
        <CharString name="Y.smcp">
          -38 -9 callgsubr
          437 -55 callgsubr
          1053 1165 -41 callsubr
        </CharString>
        <CharString name="Yacute">
          125 -76 callsubr
          117 -46 callsubr
          516 195 vstem
          719 1846 -91 callgsubr
          -330 -1122 -42 callgsubr
        </CharString>
        <CharString name="Yacute.smcp">
          -38 21 -21 1273 -46 callsubr
          437 -55 callgsubr
          859 1566 -83 callsubr
          463 -108 -41 callsubr
        </CharString>
        <CharString name="Z">
          122 0 156 1143 21 callgsubr
          87 1059 vstem
          314 156 rmoveto
          800 1161 rlineto
          139 -1015 -157 786 vlineto
          -798 -1156 rlineto
          -143 1059 156 vlineto
          endchar
        </CharString>
        <CharString name="Z.smcp">
          -46 -20 callgsubr
          864 -12 callsubr
          72 921 vstem
          303 11 callgsubr
          666 896 rlineto
          119 -889 -151 657 vlineto
          -665 -891 rlineto
          -123 921 150 vlineto
          endchar
        </CharString>
        <CharString name="a">
          -82 callgsubr
          -59 callgsubr
          459 187 hintmask 10111010
          965 236 -78 callsubr
          vhcurveto
          hintmask 10110110
          -262 -168 -165 -155 hvcurveto
          -13 callgsubr
          91 93 81 139 149 78 -83 -129 vhcurveto
          -86 -182 vlineto
          hintmask 10111010
          -93 callsubr
          hintmask 01111010
          -71 callgsubr
          hintmask 10111010
          -25 58 -13 90 72 vvcurveto
          -97 callsubr
        </CharString>
        <CharString name="aacute">
          -82 callgsubr
          19 callgsubr
          -59 callgsubr
          459 187 hintmask 10111101
          908 13 callsubr
          -83 callsubr
          326 -1007 -102 callsubr
        </CharString>
        <CharString name="acircumflex">
          -82 callgsubr
          151 283 -59 callgsubr
          459 187 hintmask 10111101
          582 1423 rmoveto
          150 -170 rlineto
          154 10 hlineto
          -101 callgsubr
          532 -1017 -102 callsubr
        </CharString>
        <CharString name="acute">
          -461 6 callgsubr
          123 419 vstem
          317 13 callsubr
          -91 callgsubr
          endchar
        </CharString>
        <CharString name="acutecomb">
          -1105 6 callgsubr
          -659 419 vstem
          -465 13 callsubr
          -91 callgsubr
          endchar
        </CharString>
        <CharString name="adieresis">
          -82 callgsubr
          164 210 0 -20 -59 callgsubr
          -60 -69 callsubr
          -132 187 hintmask 0000000000000000
          hintmask 1011100011000000
          369 -92 callsubr
          hintmask 1011010100100000
          166 -1030 -78 callsubr
          -262 -168 -165 -155 9 callsubr
          91 93 81 139 149 78 -83 -129 vhcurveto
          -86 -182 vlineto
          hintmask 1011011000100000
          -93 callsubr
          hintmask 0111011000100000
          -71 callgsubr
          hintmask 1011010100100000
          -25 58 -13 90 72 vvcurveto
          hintmask 1011011000100000
          -97 callsubr
        </CharString>
        <CharString name="ae">
          625 -21 151 367 138 -136 141 312 19 callsubr
          78 187 -159 186 456 186 540 187 hintmask 10111011
          1661 616 rmoveto
          299 -155 187 -288 vhcurveto
          -139 1 -120 -62 -83 -104 rrcurveto
          110 -65 -122 55 -153 hhcurveto
          hintmask 11010111
          -256 -174 -137 -187 hvcurveto
          186 -18 rlineto
          103 95 89 149 137 75 -89 -143 vhcurveto
          -85 -221 vlineto
          hintmask 11011011
          -294 -155 -121 -210 -197 127 -128 228 224 141 92 88 67 hvcurveto
          -112 85 134 -68 179 hhcurveto
          214 122 87 36 44 hvcurveto
          -65 135 rlineto
          -45 -67 -90 -62 -158 hhcurveto
          hintmask 10111011
          -222 -100 164 205 -7 hvcurveto
          727 hlineto
          -187 141 rmoveto
          -536 hlineto
          178 22 98 134 160 hhcurveto
          187 69 -129 -152 hvcurveto
          -1004 -542 rmoveto
          -140 -65 75 96 hvcurveto
          hintmask 11011011
          104 90 93 174 vhcurveto
          219 -241 hlineto
          hintmask 10111011
          -65 -61 -116 -62 -101 hhcurveto
          endchar
        </CharString>
        <CharString name="agrave">
          -82 callgsubr
          19 callgsubr
          -59 callgsubr
          459 187 hintmask 10111101
          671 13 callgsubr
          -99 callsubr
          454 -1007 -102 callsubr
        </CharString>
        <CharString name="alpha">
          53 -21 150 823 10 callsubr
          100 187 533 -81 callgsubr
          1121 149 rmoveto
          -2 -9 -12 -3 -13 hhcurveto
          -43 -37 28 123 hvcurveto
          787 -158 vlineto
          -17 -139 rlineto
          102 -69 -101 57 -139 15 callgsubr
          -305 153 -217 268 143 103 59 104 68 vhcurveto
          -116 28 65 -47 92 hhcurveto
          43 39 5 29 42 hvcurveto
          -577 116 rmoveto
          -9 callsubr
          124 78 -79 -107 49 vhcurveto
          -453 vlineto
          -107 -49 -75 -77 -129 hhcurveto
          endchar
        </CharString>
        <CharString name="alpha.alt">
          115 -21 150 -108 -21 952 19 callsubr
          100 -30 callgsubr
          hintmask 01110000
          1114 hmoveto
          -113 540 106 542 rlineto
          -178 hlineto
          -34 -234 rlineto
          161 -67 -120 93 -185 15 callgsubr
          hintmask 10110000
          -305 153 -217 268 188 122 96 165 67 vhcurveto
          hintmask 01110000
          38 -240 rlineto
          -87 521 rmoveto
          hintmask 10110000
          -204 -38 -75 -188 -169 hhcurveto
          -9 callsubr
          171 80 -197 -197 29 vhcurveto
          endchar
        </CharString>
        <CharString name="ampersand">
          169 -20 150 -109 -21 1326 19 callsubr
          101 187 -68 187 352 173 83 168 hintmask 00000000
          hintmask 01101110
          1268 hmoveto
          -208 249 rlineto
          84 115 39 143 165 vvcurveto
          -168 hlineto
          -109 -25 -98 -42 -81 vhcurveto
          -323 387 109 81 rlineto
          117 87 81 90 140 vvcurveto
          165 -133 142 -214 -220 -145 -126 -227 -115 65 -99 99 -119 vhcurveto
          hintmask 10110110
          -166 -119 -117 -106 -174 vvcurveto
          -240 181 -171 291 132 143 45 90 100 vhcurveto
          hintmask 01101110
          96 -115 rlineto
          -460 1326 rmoveto
          112 63 -78 -79 -100 -47 -49 -84 -57 hvcurveto
          -103 -73 rlineto
          -71 88 -47 78 73 vvcurveto
          106 60 91 117 vhcurveto
          hintmask 10110110
          -11 -1196 rmoveto
          -193 -92 119 142 44 13 96 144 107 hvcurveto
          42 31 355 -426 rlineto
          -72 -78 -95 -41 -96 hhcurveto
          endchar
        </CharString>
        <CharString name="ampersand.smcp">
          133 -16 153 -116 -21 1028 153 hstemhm
          103 185 -96 182 265 183 106 170 hintmask 00000000
          hintmask 01101110
          1170 hmoveto
          -199 212 rlineto
          82 107 45 134 146 vvcurveto
          -170 hlineto
          -104 -23 -92 -44 -74 vhcurveto
          -267 284 85 61 rlineto
          80 58 63 87 101 vvcurveto
          139 -122 122 -191 -190 -127 -106 -156 -118 71 -73 97 -101 vhcurveto
          -72 -51 rlineto
          hintmask 10110110
          -115 -84 -70 -78 -136 vvcurveto
          -166 148 -128 237 154 126 42 72 97 vhcurveto
          hintmask 01101110
          93 -98 rlineto
          -584 906 rmoveto
          59 44 63 84 87 50 -53 -69 -49 -28 -50 -56 -40 vhcurveto
          -64 -46 rlineto
          -64 67 -53 53 65 vvcurveto
          hintmask 10110110
          131 -769 rmoveto
          -146 -71 69 97 44 13 56 78 56 hvcurveto
          84 60 293 -307 rlineto
          -48 -67 -85 -27 -99 hhcurveto
          endchar
        </CharString>
        <CharString name="aring">
          -82 callgsubr
          114 88 234 89 -59 callgsubr
          47 100 232 99 -19 187 hintmask 1011111010100000
          582 1216 rmoveto
          hintmask 1011111011000000
          121 94 87 116 116 -94 92 -121 -123 -93 -92 -116 hvcurveto
          hintmask 1011111010100000
          7 callgsubr
          vhcurveto
          322 vmoveto
          hintmask 1011111011000000
          68 48 -56 -63 -60 -48 -55 -68 -68 -48 56 59 hvcurveto
          hintmask 1011111010100000
          63 48 56 68 vhcurveto
          383 -1302 -78 callsubr
          vhcurveto
          hintmask 1011110110100000
          -262 -168 -165 -155 hvcurveto
          -13 callgsubr
          91 93 81 139 149 78 -83 -129 vhcurveto
          -86 -182 vlineto
          hintmask 1011111010100000
          -93 callsubr
          hintmask 0111111010100000
          -71 callgsubr
          hintmask 1011111010100000
          -25 58 -13 90 72 vvcurveto
          -97 callsubr
        </CharString>
        <CharString name="asciicircum">
          -249 -5 callgsubr
          64 725 vstem
          789 729 rmoveto
          -298 727 rlineto
          -128 hlineto
          -299 -727 rlineto
          173 hlineto
          190 484 189 -484 rlineto
          endchar
        </CharString>
        <CharString name="asciitilde">
          288 403 161 77 161 hstem
          131 162 817 153 vstem
          1263 777 rmoveto
          -153 hlineto
          -125 -69 -88 -102 -65 -50 33 66 -71 vhcurveto
          88 -99 -83 51 -117 hhcurveto
          -190 -133 -157 -208 hvcurveto
          162 1 rlineto
          126 59 77 102 66 53 -36 -63 68 vhcurveto
          -91 103 78 -48 117 hhcurveto
          190 134 170 204 hvcurveto
          endchar
        </CharString>
        <CharString name="asterisk">
          -223 1457 -20 hstem
          371.5 144.5 vstem
          329 984 rmoveto
          -200 -276 126 -91 180 282 184 -289 126 93 -197 272 306 91 -47 152 -296 -111 10 350 rlineto
          -154 hlineto
          9 -345 -301 112 -47 -149 rlineto
          endchar
        </CharString>
        <CharString name="at">
          733 -453 124 308 119 -119 143 740 128 310 131 hstemhm
          115 146 285.58 160.1 365.31999 145.9 387.1 130 hintmask 1101111110000000
          968 1431 rmoveto
          -502 -327 -405 -548 -24 hvcurveto
          -574 -23 293 -357 507 hhcurveto
          125 155 29 60 93 hvcurveto
          -38 113 rlineto
          -48 -83 -130 -30 -118 hhcurveto
          -425 -233 308 499 23 hvcurveto
          489 21 263 333 419 hhcurveto
          464 200 -299 -498 -23 hvcurveto
          -225 -9 -88 -180 -161 hhcurveto
          -65 -79 36 195 17 hvcurveto
          51 554 rlineto
          58 -75 -69 49 -145 hhcurveto
          -205 -196 -221 -351 -31 hvcurveto
          -263 -24 96 -176 197 hhcurveto
          98 98 58 111 71 hvcurveto
          -106 33 82 -63 125 hhcurveto
          290 109 278 246 10 hvcurveto
          568 23 -277 360 -513 hhcurveto
          hintmask 1011111110000000
          -103 -1309 rmoveto
          -117 -56 107 189 18 hvcurveto
          293 26 117 151 145 hhcurveto
          47 40 -12 -17 33 hvcurveto
          -46 -504 rlineto
          -3 -1 -3 -2 vvcurveto
          -143 -53 -84 -56 -69 hhcurveto
          endchar
        </CharString>
        <CharString name="atilde">
          -82 callgsubr
          161 140 -45 141 -59 callgsubr
          -90 125 424 187 -153 125 hintmask 0000000000000000
          hintmask 1011010011000000
          453 1358 rmoveto
          -65 callgsubr
          hintmask 1011101000100000
          -66 callsubr
          -93 callgsubr
          hintmask 1011010011000000
          -95 callgsubr
          hintmask 1011100101000000
          512 -1122 -78 callsubr
          -262 -168 -165 -155 9 callsubr
          91 93 81 139 149 78 -83 -129 vhcurveto
          -86 -182 vlineto
          hintmask 1011101001000000
          -93 callsubr
          hintmask 0111101001000000
          -71 callgsubr
          hintmask 1011100101000000
          -25 58 -13 90 72 vvcurveto
          hintmask 1011101001000000
          -97 callsubr
        </CharString>
        <CharString name="b">
          45 -46 callgsubr
          947 155 hstemhm
          8 callsubr
          543 -32 callgsubr
          171 vlineto
          9 124 rlineto
          hintmask 10111000
          -93 72 104 -51 141 hhcurveto
          268 152 -24 callgsubr
          -151 222 -271 vhcurveto
          235 25 callgsubr
          -81 -177 -12 callgsubr
          209 73 24 callgsubr
        </CharString>
        <CharString name="b.ss06">
          45 -46 callgsubr
          947 155 hstemhm
          8 callsubr
          563 -32 callgsubr
          161 vlineto
          16 128 rlineto
          hintmask 10111000
          -95 72 105 -53 143 hhcurveto
          268 172 234 316 hvcurveto
          21 vlineto
          330 -171 221 -271 vhcurveto
          255 -572 rmoveto
          -216 -101 -178 -12 callgsubr
          201 101 -173 -223 hvcurveto
          endchar
        </CharString>
        <CharString name="backslash">
          -264 -5 callgsubr
          41 785 vstem
          41 -29 callgsubr
          608 -1581 rlineto
          177 hlineto
          -608 1581 rlineto
          endchar
        </CharString>
        <CharString name="bar">
          -604 -5 callgsubr
          176 150 vstem
          326 -270 rmoveto
          1726 -150 -1726 vlineto
          endchar
        </CharString>
        <CharString name="braceleft">
          -411 543 144 hstem
          276 -81 callgsubr
          463 98 rmoveto
          207 vlineto
          134 -51 114 -118 62 vhcurveto
          118 62 51 114 134 vvcurveto
          207 vlineto
          164 50 137 158 51 vhcurveto
          -39 113 rlineto
          -272 -77 -84 -178 -210 vvcurveto
          -207 vlineto
          -145 -62 -93 -150 vhcurveto
          -144 vlineto
          150 62 -94 -144 hvcurveto
          -207 vlineto
          -210 84 -178 272 -77 vhcurveto
          39 114 rlineto
          -158 50 -50 137 164 vvcurveto
          endchar
        </CharString>
        <CharString name="braceright">
          -411 543 144 hstem
          228 -81 callgsubr
          415 925 rmoveto
          207 vlineto
          210 -83 178 -273 77 vhcurveto
          -39 -113 rlineto
          158 -51 50 -137 -164 vvcurveto
          -207 vlineto
          -139 56 -114 128 -57 vhcurveto
          -128 -57 -56 -114 -139 vvcurveto
          -207 vlineto
          -164 -50 -137 -158 -50 vhcurveto
          39 -114 rlineto
          273 77 83 178 210 vvcurveto
          207 vlineto
          144 63 94 149 vhcurveto
          144 vlineto
          -149 -63 93 145 hvcurveto
          endchar
        </CharString>
        <CharString name="bracketleft">
          14 callgsubr
          146 -81 callgsubr
          524 1514 rmoveto
          150 -378 -1976 378 150 -191 1676 vlineto
          endchar
        </CharString>
        <CharString name="bracketright">
          14 callgsubr
          202 -81 callgsubr
          10 1664 rmoveto
          -150 192 -1676 -192 -150 379 1976 vlineto
          endchar
        </CharString>
        <CharString name="brokenbar">
          -612 -5 callgsubr
          147 -81 callgsubr
          334 698 rmoveto
          758 -187 -758 vlineto
          -968 vmoveto
          187 791 28 callgsubr
          endchar
        </CharString>
        <CharString name="bullet">
          -414 536 434 hstem
          139 408 vstem
          139 772 rmoveto
          -40 vlineto
          -115 78 -81 126 127 77 81 115 vhcurveto
          40 vlineto
          115 -77 83 -128 -125 -78 -83 -115 vhcurveto
          endchar
        </CharString>
        <CharString name="c">
          -32 -31 callsubr
          92 -81 callgsubr
          829 342 rmoveto
          -4 callgsubr
          -72 callsubr
          223 -10 -168 169 -254 hhcurveto
          -325 -157 -249 -291 hvcurveto
          -42 vlineto
          -291 156 -249 326 230 191 169 193 11 vhcurveto
          endchar
        </CharString>
        <CharString name="c.ss06">
          -30 -31 callsubr
          93 -81 callgsubr
          831 342 rmoveto
          -123 -11 -112 -89 -131 hhcurveto
          -230 -67 199 191 hvcurveto
          42 vlineto
          189 69 201 227 148 97 -108 -134 10 vhcurveto
          177 hlineto
          223 -10 -168 169 -254 hhcurveto
          -325 -158 -249 -291 hvcurveto
          -42 vlineto
          -291 157 -249 327 229 192 169 193 10 vhcurveto
          endchar
        </CharString>
        <CharString name="ccedilla">
          -32 -445 106 349 -21 963 10 callsubr
          92 187 321 145 vstem
          574 130 rmoveto
          -72 callsubr
          223 -10 -168 169 -254 hhcurveto
          -325 -157 -249 -291 hvcurveto
          -42 vlineto
          -258 123 -225 255 -48 vhcurveto
          -31 -134 -83 callgsubr
          10 44 217 13 176 163 11 185 rlinecurve
          -177 hlineto
          -4 callgsubr
          endchar
        </CharString>
        <CharString name="cedilla">
          -597 -435 106 276 53 hstem
          282 145 vstem
          286 hmoveto
          -134 hlineto
          -31 -135 -83 callgsubr
          endchar
        </CharString>
        <CharString name="cent">
          16 9 -21 22 -21 hstemhm
          104 187 192 187 hintmask 01110000
          586 130 rmoveto
          -72 callsubr
          -9 197 -132 155 -207 33 rrcurveto
          223 -187 -225 vlineto
          -255 -47 -124 -226 -258 vvcurveto
          -42 vlineto
          -258 123 -226 256 -47 vhcurveto
          -234 187 vlineto
          hintmask 10110000
          233 vlineto
          191 35 147 150 10 169 rrcurveto
          -177 hlineto
          hintmask 01110000
          -4 callgsubr
          endchar
        </CharString>
        <CharString name="circumflex">
          -139 1253 28 callsubr
          170 606 vstem
          776 1263 rmoveto
          -101 callgsubr
          149 170 150 -170 rlineto
          154 hlineto
          endchar
        </CharString>
        <CharString name="colon">
          -607 -11 220 664 220 hstemhm
          133 231 hintmask 00000000
          hintmask 11100000
          249 1093 rmoveto
          -85 callgsubr
          -1 -884 rmoveto
          -85 callgsubr
          endchar
        </CharString>
        <CharString name="comma">
          -702 -290 509 hstem
          127 183 vstem
          310 71 -37 callsubr
        </CharString>
        <CharString name="copyright">
          504 -21 119 186 128 634 127 184 119 hstem
          91 116 234 145 387 146 275 116 vstem
          801 -18 callsubr
          391 14 callsubr
          -391 -53 callsubr
          318 500 rmoveto
          -146 hlineto
          -135 -64 -51 -121 -132 -70 106 153 vhcurveto
          116 vlineto
          151 70 108 132 121 65 -54 -132 vhcurveto
          146 hlineto
          209 -128 104 -204 -213 -134 -158 -229 vhcurveto
          -115 vlineto
          -230 134 -157 213 204 127 104 210 vhcurveto
          endchar
        </CharString>
        <CharString name="crossbar">
          -185 652 10 callsubr
          143 638 vstem
          781 24 callsubr
          -638 27 callsubr
        </CharString>
        <CharString name="currency">
          355 -20 170 914 170 hstem
          140 173 843 174 vstem
          1330 608 rmoveto
          139 -41 126 -69 102 vhcurveto
          151 154 -133 136 -148 -151 rlineto
          76 -99 -123 44 -133 hhcurveto
          -132 -121 -44 -75 -99 hvcurveto
          -146 149 -132 -135 148 -151 rlineto
          -71 -102 -42 -128 -140 vvcurveto
          -134 38 -123 66 -101 vhcurveto
          -139 -141 132 -135 133 136 rlineto
          -82 101 127 -48 137 hhcurveto
          139 127 49 82 101 hvcurveto
          136 -138 133 136 -143 145 rlineto
          65 100 37 121 133 vvcurveto
          -595 -458 rmoveto
          -233 -189 206 252 252 189 204 233 233 188 -204 -252 -252 -188 -206 -233 hvcurveto
          endchar
        </CharString>
        <CharString name="d">
          51 -46 callgsubr
          947 155 hstemhm
          95 187 540 187 hintmask 10111000
          822 13 callsubr
          rmoveto
          -561 vlineto
          82 -71 -98 45 -130 hhcurveto
          -258 -170 -222 -43 callgsubr
          172 -233 254 136 101 48 87 71 vhcurveto
          hintmask 01111000
          9 -115 rlineto
          171 13 callsubr
          hlineto
          hintmask 10111000
          -442 -1400 rmoveto
          -200 -85 177 -15 callgsubr
          216 85 181 202 126 79 -64 -88 48 vhcurveto
          -503 vlineto
          -91 -49 -77 -65 -129 hhcurveto
          endchar
        </CharString>
        <CharString name="d.ss06">
          67 -46 callgsubr
          947 155 hstemhm
          91 187 561 186 hintmask 10111000
          839 13 callsubr
          rmoveto
          -562 vlineto
          82 -71 -98 46 -131 hhcurveto
          -258 -190 -222 -43 callgsubr
          192 -233 254 138 103 50 89 71 vhcurveto
          hintmask 01111000
          14 -119 rlineto
          162 13 callsubr
          hlineto
          hintmask 10111000
          -442 -1400 rmoveto
          -199 -106 177 -15 callgsubr
          223 106 174 201 127 80 -65 -89 47 vhcurveto
          -500 vlineto
          -91 -48 -78 -66 -130 hhcurveto
          endchar
        </CharString>
        <CharString name="degree">
          -340 961 127 262 127 hstem
          131 125 256 125 vstem
          386 1477 rmoveto
          -139 -116 -118 -142 -143 116 -113 139 138 113 113 143 142 -113 118 -138 hvcurveto
          -389 vmoveto
          -72 -58 55 74 76 58 57 72 72 54 -57 -76 -74 -54 -55 -72 hvcurveto
          endchar
        </CharString>
        <CharString name="dieresis">
          -249 1266 210 hstemhm
          100 -69 callsubr
          hintmask 00000000
          hintmask 11100000
          210 1478 -89 callsubr
          -95 callsubr
          endchar
        </CharString>
        <CharString name="divide">
          65 601 183 205 221 hstemhm
          461 231 hintmask 00000000
          hintmask 11100000
          576 1210 rmoveto
          -76 -39 -49 23 callgsubr
          49 -75 hvcurveto
          493 -609 rmoveto
          183 -998 -183 vlineto
          505 -208 rmoveto
          -76 -39 -48 23 callgsubr
          48 -75 hvcurveto
          endchar
        </CharString>
        <CharString name="dollar">
          46 3 -21 22 -21 1489 -20 21 -20 hstemhm
          110 187 -131 187 154 149 -132 151 168 186 -174 187 hintmask 0101010101000000
          1042 377 rmoveto
          236 -146 113 -257 83 vhcurveto
          -219 73 -67 72 129 vvcurveto
          139 77 95 167 vhcurveto
          hintmask 0110010110000000
          160 86 -130 -178 hvcurveto
          186 hlineto
          272 -130 161 -224 30 vhcurveto
          220 -151 vlineto
          hintmask 0101010101000000
          -219 vlineto
          -220 -26 -138 -145 -222 vvcurveto
          -236 155 -121 253 -77 vhcurveto
          207 -69 74 -83 -119 vvcurveto
          -144 -102 -92 -178 vhcurveto
          hintmask 1001101001000000
          -131 -147 63 227 hvcurveto
          28 callgsubr
          -304 192 -122 205 -21 vhcurveto
          -190 149 vlineto
          hintmask 0101011001000000
          191 vlineto
          hintmask 0101010101000000
          237 25 149 137 232 vvcurveto
          endchar
        </CharString>
        <CharString name="dollar.smcp">
          -49 9 -21 1190 -20 hstemhm
          67 188 -148 187 182 150 174 187 -185 188 hintmask 11011010
          990 300 rmoveto
          191 -144 107 -259 66 vhcurveto
          17 callsubr
          vhcurveto
          hintmask 11011100
          176 84 -86 -119 hvcurveto
          -13 callgsubr
          174 -132 147 -229 29 vhcurveto
          219 -150 -217 vlineto
          -224 -21 -145 -125 -171 vvcurveto
          -193 166 -100 258 -63 vhcurveto
          hintmask 11101010
          15 callsubr
          -160 -133 61 155 vhcurveto
          -188 hlineto
          -221 198 -118 211 -22 vhcurveto
          -225 150 225 vlineto
          hintmask 11011010
          222 21 142 116 175 vvcurveto
          endchar
        </CharString>
        <CharString name="dotlessi">
          -597 -9 callgsubr
          156 -55 callgsubr
          342 hmoveto
          -33 callgsubr
        </CharString>
        <CharString name="e">
          -68 callsubr
          -24 callsubr
          1012 573 -106 callsubr
        </CharString>
        <CharString name="e.ss07">
          -68 callsubr
          hstem
          93 188 544 -81 callgsubr
          1012 611 rmoveto
          282 -135 209 -311 -243 -230 -197 -341 vhcurveto
          -44 vlineto
          -315 210 -225 324 177 109 62 53 59 vhcurveto
          -57 126 rlineto
          -49 -64 -93 -42 -122 hhcurveto
          -215 -129 159 201 -11 hvcurveto
          731 hlineto
          -187 11 callgsubr
          -541 hlineto
          200 22 110 112 150 hhcurveto
          189 70 -140 -146 hvcurveto
          endchar
        </CharString>
        <CharString name="eacute">
          -68 callsubr
          19 callgsubr
          -24 callsubr
          891 13 callsubr
          -83 callsubr
          390 -670 -106 callsubr
        </CharString>
        <CharString name="ecircumflex">
          -68 callsubr
          151 283 -24 callsubr
          565 1423 rmoveto
          150 -170 rlineto
          154 10 hlineto
          -101 callgsubr
          596 -680 -106 callsubr
        </CharString>
        <CharString name="edieresis">
          -68 callsubr
          164 8 callgsubr
          93 187 -38 -69 callsubr
          -68 187 hintmask 0000000000000000
          hintmask 1111001100000000
          352 -92 callsubr
          hintmask 1110110010000000
          230 -693 -106 callsubr
        </CharString>
        <CharString name="egrave">
          -68 callsubr
          19 callgsubr
          -24 callsubr
          654 13 callgsubr
          -99 callsubr
          518 -670 -106 callsubr
        </CharString>
        <CharString name="eight">
          -97 callgsubr
        </CharString>
        <CharString name="eight.frac">
          653 -84 callsubr
          1070 -105 callgsubr
        </CharString>
        <CharString name="eight.smcp">
          -65 20 callsubr
          389 150 357 151 hstemhm
          97 187 -157 188 411 186 -157 187 hintmask 11110010
          729 600 rmoveto
          hintmask 11101100
          112 51 71 93 115 vvcurveto
          206 -168 116 -226 -227 -164 -116 -206 -115 69 -92 112 -51 vhcurveto
          hintmask 11110010
          -129 -52 -82 -102 -130 vvcurveto
          -217 184 -116 239 236 186 116 217 130 -83 101 -130 52 vhcurveto
          hintmask 11101100
          -211 430 rmoveto
          123 85 -74 -104 -109 -83 -70 -123 -125 -80 70 109 110 80 68 123 hvcurveto
          hintmask 11110010
          2 -896 rmoveto
          -145 -91 72 121 117 91 79 143 141 96 -79 -117 -121 -94 -72 -141 hvcurveto
          endchar
        </CharString>
        <CharString name="eight.sup">
          -11 -84 callsubr
          406 -105 callgsubr
        </CharString>
        <CharString name="eight.tnum">
          -97 callgsubr
        </CharString>
        <CharString name="ellipsis">
          266 -11 220 hstemhm
          147 231 207 231 185 231 hintmask 00000000
          hintmask 11110000
          262 209 rmoveto
          -85 callgsubr
          438 hmoveto
          -85 callgsubr
          416 hmoveto
          -85 callgsubr
          endchar
        </CharString>
        <CharString name="emdash">
          494 652 10 callsubr
          144 1336 vstem
          1480 24 callsubr
          -1336 27 callsubr
        </CharString>
        <CharString name="endash">
          239 652 10 callsubr
          162 1002 vstem
          1164 24 callsubr
          -1002 27 callsubr
        </CharString>
        <CharString name="equal">
          19 400 159 256 159 hstem
          152 834 vstem
          986 815 rmoveto
          159 -834 -159 vlineto
          834 -415 rmoveto
          159 -834 -159 vlineto
          endchar
        </CharString>
        <CharString name="eth">
          96 -20 151 696 -12 callsubr
          126 187 570 -81 callgsubr
          820 1303 rmoveto
          168 114 -73 99 -189 -128 -116 92 -140 65 -158 36 rlinecurve
          -58 -159 114 -30 108 -45 93 -65 rlinecurve
          -192 -130 74 -99 217 147 87 -86 67 -110 34 -139 rlinecurve
          68 -71 -99 45 -112 hhcurveto
          -258 -190 -202 -308 -272 195 -216 281 271 197 226 329 hvcurveto
          98 vlineto
          276 -93 228 -157 166 vhcurveto
          63 -768 rmoveto
          -231 -106 -173 -171 -188 -105 172 165 220 111 139 194 138 88 -65 -70 38 vhcurveto
          -18 1 -20 -19 vvcurveto
          endchar
        </CharString>
        <CharString name="exclam">
          -576 -11 210 -189 -21 1467 -20 hstemhm
          161 220 -207 182 hintmask 01101000
          349 411 rmoveto
          14 1045 rlineto
          -196 hlineto
          14 -1045 rlineto
          hintmask 10110000
          89 -212 26 callgsubr
          -59 37 -45 72 72 39 45 59 59 -39 47 -72 hvcurveto
          endchar
        </CharString>
        <CharString name="exclamdown">
          -604 891 210 hstemhm
          139 220 -195 182 hintmask 00000000
          hintmask 11000000
          250 891 -11 callgsubr
          hintmask 10100000
          -79 -207 rmoveto
          -14 -1045 rlineto
          196 hlineto
          -14 1045 rlineto
          endchar
        </CharString>
        <CharString name="f">
          -393 -36 callsubr
          vstem
          605 1400 rmoveto
          7 callsubr
          hvcurveto
          -86 callsubr
          230 141 -230 18 callsubr
          118 vhcurveto
          endchar
        </CharString>
        <CharString name="f_f">
          319 -36 callsubr
          525 -81 callgsubr
          231 1197 rmoveto
          -44 callgsubr
          941 230 141 -230 18 callsubr
          118 7 callsubr
          vhcurveto
          10 149 rlineto
          10 -41 -44 6 -42 hhcurveto
          -222 -135 -30 callsubr
          1086 203 rmoveto
          7 callsubr
          hvcurveto
          -86 callsubr
          230 141 -230 18 callsubr
          118 vhcurveto
          endchar
        </CharString>
        <CharString name="f_f_i">
          644 21 -21 941 141 310 165 -157 157 hstemhm
          231 187 398 187 398 187 hintmask 11101110
          1227 29 callsubr
          32 154 rlineto
          35 -98 -89 26 -97 hhcurveto
          -245 -152 -135 -245 hvcurveto
          -95 -398 115 vlineto
          hintmask 11011110
          10 callgsubr
          118 7 callsubr
          vhcurveto
          -86 callsubr
          398 -14 callgsubr
          941 221 141 -221 95 vlineto
          hintmask 11101110
          -19 callsubr
        </CharString>
        <CharString name="f_f_l">
          644 -36 callsubr
          398 187 398 -81 callgsubr
          1188 1557 rmoveto
          -236 -136 -30 callsubr
          -115 -398 18 callsubr
          118 7 callsubr
          vhcurveto
          -86 callsubr
          398 -14 callgsubr
          941 230 141 -230 18 callsubr
          130 51 67 -7 -12 81 vhcurveto
          -1381 187 1496 vlineto
          29 -144 -169 32 -87 hhcurveto
          endchar
        </CharString>
        <CharString name="f_l">
          59 -36 callsubr
          398 -81 callgsubr
          603 1557 rmoveto
          -237 -74 callgsubr
          230 141 -230 18 callsubr
          130 51 67 -7 -12 81 vhcurveto
          -1381 187 1496 vlineto
          29 -144 -169 32 -87 hhcurveto
          endchar
        </CharString>
        <CharString name="fi">
          30 21 -21 941 141 310 165 hstem
          202 187 398 -81 callgsubr
          613 29 callsubr
          31 154 rlineto
          35 -97 -90 26 -96 hhcurveto
          -246 -151 -135 -245 hvcurveto
          -95 -171 -141 171 -14 callgsubr
          941 220 141 -220 95 vlineto
          -19 callsubr
        </CharString>
        <CharString name="five">
          46 -20 150 656 165 336 169 hstem
          883 -81 callgsubr
          206 731 rmoveto
          150 -38 rlineto
          58 66 47 35 124 hhcurveto
          187 103 -141 -183 -204 -100 -128 -174 -156 -99 87 166 -23 hvcurveto
          -177 hlineto
          -272 25 194 -131 236 hhcurveto
          311 150 205 279 297 -165 190 -268 -107 -83 -32 -31 -52 hvcurveto
          43 399 rlineto
          589 169 -747 hlineto
          endchar
        </CharString>
        <CharString name="five.frac">
          653 127 284 -52 callsubr
          1052 -100 callgsubr
        </CharString>
        <CharString name="five.smcp">
          -65 20 callsubr
          479 149 242 161 hstem
          779 -81 callgsubr
          164 580 rmoveto
          150 -37 rlineto
          38 54 44 32 112 hhcurveto
          161 94 -99 -136 -144 -77 -100 -155 -130 -92 58 120 -17 hvcurveto
          -180 hlineto
          -216 19 188 -112 212 hhcurveto
          286 133 173 216 241 -156 148 -243 -95 -74 -27 -21 -45 hvcurveto
          37 290 rlineto
          523 161 -680 hlineto
          endchar
        </CharString>
        <CharString name="five.sup">
          -11 127 284 -52 callsubr
          388 -100 callgsubr
        </CharString>
        <CharString name="five.tnum">
          26 endchar
        </CharString>
        <CharString name="four">
          46 21 -21 339 150 967 -20 hstem
          716 -81 callgsubr
          1105 489 rmoveto
          -202 967 -199 hlineto
          -651 -1009 rlineto
          -108 663 -339 187 339 202 vlineto
          -841 11 callgsubr
          430 676 22 40 rlineto
          -716 vlineto
          endchar
        </CharString>
        <CharString name="four.frac">
          834 129 -16 callgsubr
          963 -90 callgsubr
        </CharString>
        <CharString name="four.smcp">
          -65 21 -21 263 10 callsubr
          635 -81 callgsubr
          997 413 rmoveto
          -175 752 -196 hlineto
          -578 -788 3 -114 rlineto
          584 -263 187 263 175 hlineto
          -749 11 callgsubr
          361 462 26 47 rlineto
          -509 vlineto
          endchar
        </CharString>
        <CharString name="four.sup">
          21 -21 170 129 -16 callgsubr
          299 -90 callgsubr
        </CharString>
        <CharString name="four.tnum">
          126 endchar
        </CharString>
        <CharString name="fraction">
          -174 111 1204 hstem
          60 816 vstem
          165 111 2 callgsubr
          endchar
        </CharString>
        <CharString name="g">
          45 -27 callgsubr
          96 187 541 -81 callgsubr
          841 1082 rmoveto
          -8 -118 rlineto
          89 -72 -101 49 -136 hhcurveto
          -264 -164 -222 -43 callgsubr
          166 -233 -4 callsubr
          -93 vlineto
          -189 -112 -102 -174 -98 -102 37 110 -90 vhcurveto
          -97 -109 rlineto
          -141 97 192 -47 112 hhcurveto
          270 189 163 287 hvcurveto
          1059 vlineto
          -443 -946 rmoveto
          -200 -85 177 -15 callgsubr
          216 85 181 -19 callgsubr
        </CharString>
        <CharString name="g.alt">
          -23 -438 150 334 150 168 151 422 145 -130 19 callsubr
          30 187 -125 187 -127 168 444 186 -106 187 hintmask 0000000000000000
          hintmask 1111000101000000
          619 196 rmoveto
          -172 hlineto
          -71 -56 20 63 50 24 33 27 23 hvcurveto
          -14 47 51 -7 54 hhcurveto
          hintmask 1111001010000000
          254 173 163 195 hvcurveto
          22 vlineto
          73 -21 65 -39 55 vhcurveto
          152 hlineto
          -2 145 rlineto
          -366 hlineto
          hintmask 1110101010000000
          13 -46 -52 7 -55 hhcurveto
          -253 -176 -150 -208 hvcurveto
          -22 vlineto
          -119 66 -107 109 -66 vhcurveto
          hintmask 1111000110000000
          -56 -41 -59 -62 -103 vvcurveto
          -52 22 -40 35 -29 vhcurveto
          hintmask 1111010001000000
          -96 -49 -83 -87 -128 vvcurveto
          -148 163 -129 301 342 195 187 153 vhcurveto
          hintmask 1111000101000000
          202 -153 92 -259 vhcurveto
          hintmask 1110101010000000
          -340 548 rmoveto
          112 98 96 144 145 98 -96 -112 vhcurveto
          -22 vlineto
          -104 -96 -103 -145 -147 -97 103 104 vhcurveto
          hintmask 1111010001000000
          215 -1010 rmoveto
          -190 -87 74 89 81 51 67 65 29 hvcurveto
          -4 25 26 -2 27 hhcurveto
          208 hlineto
          172 53 -53 -91 -84 -125 -106 -225 hvcurveto
          endchar
        </CharString>
        <CharString name="g.ss06">
          60 -27 callgsubr
          91 187 560 -81 callgsubr
          868 1082 rmoveto
          -16 -125 rlineto
          93 -71 -104 52 -139 hhcurveto
          -263 -184 -222 -43 callgsubr
          185 -233 -4 callsubr
          -38 vlineto
          -225 -87 -121 -198 -105 -114 36 56 -82 vhcurveto
          -56 -137 rlineto
          -72 104 149 -33 106 hhcurveto
          301 169 182 323 hvcurveto
          1004 vlineto
          -443 -946 rmoveto
          -199 -105 177 -15 callgsubr
          223 105 174 201 127 80 -66 -88 47 vhcurveto
          -499 vlineto
          -92 -48 -77 -66 -131 hhcurveto
          endchar
        </CharString>
        <CharString name="g.ss07">
          45 -27 callgsubr
          96 187 541 -81 callgsubr
          853 1082 rmoveto
          -15 -125 rlineto
          93 -72 -103 52 -139 hhcurveto
          -264 -164 -223 -43 callgsubr
          166 -232 -4 callsubr
          -57 vlineto
          -212 -87 -115 -199 -92 -99 29 44 -73 vhcurveto
          -56 -137 rlineto
          -59 93 135 -27 94 hhcurveto
          302 169 176 311 hvcurveto
          1022 vlineto
          -443 -946 rmoveto
          -200 -85 176 -15 callgsubr
          224 85 174 -19 callgsubr
        </CharString>
        <CharString name="germandbls">
          113 -20 150 -109 -21 1404 19 callsubr
          139 186 271 186 -48 176 34 -30 callgsubr
          hintmask 01110110
          325 hmoveto
          1112 vlineto
          201 81 91 137 109 82 -69 -133 vhcurveto
          -154 -138 -65 -161 vvcurveto
          hintmask 10111010
          -271 348 -53 -190 vvcurveto
          -99 -62 -79 -156 -92 -99 47 29 -46 vhcurveto
          -42 -153 rlineto
          -38 51 138 -35 110 hhcurveto
          224 161 109 228 hvcurveto
          258 -349 61 184 138 128 45 214 vvcurveto
          hintmask 01110110
          231 -159 106 -218 -234 -160 -150 -292 vhcurveto
          -1112 vlineto
          endchar
        </CharString>
        <CharString name="grave">
          -471 6 callgsubr
          56 419 vstem
          475 13 callgsubr
          rmoveto
          -194 293 rlineto
          -225 -76 callgsubr
          endchar
        </CharString>
        <CharString name="gravecomb">
          -1105 6 callgsubr
          -859 419 vstem
          -440 13 callgsubr
          -99 callsubr
          endchar
        </CharString>
        <CharString name="greater">
          -34 198 901 hstem
          135 854 vstem
          135 1099 rmoveto
          -189 vlineto
          661 -258 -661 -264 rlineto
          -190 vlineto
          854 379 rlineto
          144 vlineto
          endchar
        </CharString>
        <CharString name="guillemotleft">
          -144 151 795 hstem
          100 770 vstem
          538 946 -60 callsubr
          590 397 -60 callsubr
          endchar
        </CharString>
        <CharString name="guillemotright">
          -144 153 796 hstem
          103 787 vstem
          540 541 rmoveto
          19 vlineto
          -295 389 rlineto
          -35 callgsubr
          350 796 rmoveto
          -35 callgsubr
          295 388 rlineto
          19 vlineto
          endchar
        </CharString>
        <CharString name="guilsinglleft">
          -490 154 795 hstem
          108 438 vstem
          546 949 -60 callsubr
          endchar
        </CharString>
        <CharString name="guilsinglright">
          -490 153 796 hstem
          90 437 vstem
          232 949 rmoveto
          -35 callgsubr
          295 388 rlineto
          19 vlineto
          endchar
        </CharString>
        <CharString name="h">
          23 21 -21 947 -6 callsubr
          478 -81 callgsubr
          645 1102 rmoveto
          -131 -110 -55 -93 -77 hvcurveto
          582 -187 -1536 187 774 vlineto
          -75 callgsubr
        </CharString>
        <CharString name="hyphen">
          -540 -25 callsubr
        </CharString>
        <CharString name="i">
          -607 21 -21 1266 8 callgsubr
          142 220 -206 -30 callgsubr
          hintmask 10110000
          251 -37 callgsubr
          92 -1476 rmoveto
          1082 -187 -1082 vlineto
          endchar
        </CharString>
        <CharString name="iacute">
          -2 callsubr
          354 1534 -91 callgsubr
          -237 -1534 rmoveto
          -33 callgsubr
        </CharString>
        <CharString name="icircumflex">
          -597 21 -21 1251 28 callsubr
          156 -55 callgsubr
          557 1261 rmoveto
          -101 callgsubr
          149 170 150 -170 rlineto
          154 hlineto
          -215 -1251 rmoveto
          -33 callgsubr
        </CharString>
        <CharString name="idieresis">
          -597 21 -21 1264 210 -208 210 -2 -20 22 -20 hstemhm
          -70 220 6 186 19 220 hintmask 00000000
          hintmask 10001100
          40 1476 rmoveto
          -72 -38 -47 -59 hvcurveto
          hintmask 10100100
          -58 38 -46 72 72 38 46 58 vhcurveto
          hintmask 10001100
          59 -38 47 -72 vhcurveto
          hintmask 10010011
          430 -2 26 callgsubr
          hvcurveto
          hintmask 11000011
          5 callgsubr
          vhcurveto
          hintmask 10010011
          59 -39 47 -72 vhcurveto
          hintmask 10001010
          -128 -1474 rmoveto
          -33 callgsubr
        </CharString>
        <CharString name="igrave">
          -2 callsubr
          342 1241 -99 callsubr
          160 -1241 rmoveto
          -33 callgsubr
        </CharString>
        <CharString name="j">
          -614 -437 156 1547 8 callgsubr
          127 220 -201 -30 callgsubr
          hintmask 10110000
          236 -37 callgsubr
          97 -394 rmoveto
          -187 -1211 hlineto
          -111 -45 -41 -80 -24 -36 3 6 -25 vhcurveto
          -1 -148 rlineto
          -10 31 50 -7 34 hhcurveto
          190 93 109 199 hvcurveto
          endchar
        </CharString>
        <CharString name="k">
          -66 -9 callgsubr
          141 -81 callgsubr
          818 hmoveto
          220 hlineto
          -471 631 421 451 rlineto
          -227 hlineto
          -334 -357 -99 -117 rlineto
          928 -187 -1536 187 382 vlineto
          116 120 rlineto
          endchar
        </CharString>
        <CharString name="k.alt">
          -60 21 -21 502 152 hstem
          147 -55 callgsubr
          825 hmoveto
          221 hlineto
          -429 590 376 492 rlineto
          -221 hlineto
          -313 -428 rlineto
          -126 882 -186 -1536 186 502 130 hlineto
          endchar
        </CharString>
        <CharString name="k.alt2">
          -64 -9 callgsubr
          147 -55 callgsubr
          781 hmoveto
          230 hlineto
          -511 583 469 499 rlineto
          -242 hlineto
          -393 -429 rlineto
          -1 907 -186 -1560 186 500 6 hlineto
          endchar
        </CharString>
        <CharString name="l">
          -607 -9 callgsubr
          156 -81 callgsubr
          343 hmoveto
          13 callsubr
          -187 -1536 vlineto
          endchar
        </CharString>
        <CharString name="less">
          -64 196 902 hstem
          72 818 vstem
          890 1098 rmoveto
          -818 -378 rlineto
          -145 vlineto
          818 -379 rlineto
          195 vlineto
          -624 254 624 259 rlineto
          endchar
        </CharString>
        <CharString name="logicalnot">
          30 640 160 hstem
          772 -81 callgsubr
          127 800 rmoveto
          -160 645 -264 187 424 vlineto
          endchar
        </CharString>
        <CharString name="longs">
          -596 21 -21 1407 10 callsubr
          160 -81 callgsubr
          160 hmoveto
          187 1197 hlineto
          131 64 79 118 38 29 -5 -7 24 vhcurveto
          23 141 rlineto
          12 -48 -47 9 -48 hhcurveto
          -211 -129 -30 callsubr
          endchar
        </CharString>
        <CharString name="longst">
          158 -20 158 -117 -21 941 141 325 150 -100 -20 hstemhm
          231 187 369 -30 callgsubr
          hintmask 10101110
          1179 -26 callsubr
          375 vlineto
          hintmask 01110110
          61 -124 -161 39 -118 hhcurveto
          -211 -129 -78 callgsubr
          1197 vlineto
          131 63 79 119 60 87 -16 -21 40 vhcurveto
          -288 -197 -141 197 -672 vlineto
          hintmask 10101110
          0 callsubr
        </CharString>
        <CharString name="m">
          690 21 -21 947 155 hstem
          139 187 478 187 478 -81 callgsubr
          1294 1102 rmoveto
          -156 -116 -69 -103 -72 hvcurveto
          120 -57 -113 52 -139 hhcurveto
          -140 -106 -51 -86 -74 hvcurveto
          -5 117 rlineto
          -177 -1082 187 794 hlineto
          91 40 77 62 130 hhcurveto
          140 91 -65 -170 hvcurveto
          -712 187 719 vlineto
          125 14 85 103 149 hhcurveto
          140 90 -52 -182 hvcurveto
          -713 187 711 vlineto
          273 -130 118 -232 vhcurveto
          endchar
        </CharString>
        <CharString name="macron">
          -165 1304 141 hstem
          143 672 vstem
          815 1304 rmoveto
          141 -672 -141 vlineto
          endchar
        </CharString>
        <CharString name="minus">
          66 652 10 callsubr
          168 835 vstem
          1003 24 callsubr
          -835 27 callsubr
        </CharString>
        <CharString name="multiply">
          -12 204 916 hstem
          89 901 vstem
          990 326 rmoveto
          -331 337 329 335 -120 122 -328 -335 -329 335 -120 -122 329 -335 -331 -337 120 -122 331 337 330 -337 rlineto
          endchar
        </CharString>
        <CharString name="n">
          26 21 -21 947 -6 callsubr
          478 -81 callgsubr
          645 1102 rmoveto
          -134 -111 -57 -96 -77 hvcurveto
          -6 133 rlineto
          -177 -1082 187 774 hlineto
          -75 callgsubr
        </CharString>
        <CharString name="nine">
          46 -2 156 333 152 685 152 hstem
          100 183 548 -55 callgsubr
          552 1476 rmoveto
          -297 -155 -226 -277 -238 127 -248 289 127 110 62 91 77 hvcurveto
          -252 -10 -95 -234 -401 hhcurveto
          -19 -156 19 hlineto
          606 87 442 379 hvcurveto
          69 vlineto
          295 -131 293 -334 vhcurveto
          -6 -837 rmoveto
          -178 -85 171 173 194 98 147 171 147 132 -146 -266 hvcurveto
          -72 vlineto
          -113 -48 -110 -88 -127 hhcurveto
          endchar
        </CharString>
        <CharString name="nine.frac">
          657 -74 callsubr
          1464 -102 callgsubr
        </CharString>
        <CharString name="nine.smcp">
          -65 -7 153 236 146 502 -12 callsubr
          86 185 466 -55 callgsubr
          501 1181 rmoveto
          -267 -148 -184 -224 -208 120 -183 258 123 91 48 63 57 hvcurveto
          -199 -14 -113 -148 -316 hhcurveto
          -18 hlineto
          -1 -153 rlineto
          19 hlineto
          497 134 298 347 hvcurveto
          69 vlineto
          265 -131 209 -291 vhcurveto
          -4 -653 rmoveto
          -152 -74 120 129 137 84 116 146 127 109 -101 -191 hvcurveto
          -65 vlineto
          -80 -37 -91 -65 -112 hhcurveto
          endchar
        </CharString>
        <CharString name="nine.sup">
          -7 -74 callsubr
          800 -102 callgsubr
        </CharString>
        <CharString name="nine.tnum">
          105 endchar
        </CharString>
        <CharString name="ntilde">
          26 21 -21 947 155 161 -51 callsubr
          8 callsubr
          -107 -51 callgsubr
          -123 -30 callgsubr
          hintmask 11010101
          444 1358 rmoveto
          -65 callgsubr
          hintmask 11101010
          -66 callsubr
          -93 callgsubr
          hintmask 11010101
          -95 callgsubr
          hintmask 11101001
          201 -256 rmoveto
          -134 -111 -57 -96 -77 hvcurveto
          -6 133 rlineto
          -177 -1082 187 774 hlineto
          -75 callgsubr
        </CharString>
        <CharString name="numbersign">
          158 21 -21 410 137 355 138 416 -20 hstem
          120 1116 vstem
          1236 902 rmoveto
          138 -202 vlineto
          81 416 rlineto
          -145 hlineto
          -81 -416 rlineto
          -263 hlineto
          81 416 rlineto
          -144 hlineto
          -81 -416 rlineto
          -286 -138 259 hlineto
          -69 -355 rlineto
          -266 -137 239 18 callgsubr
          263 18 callgsubr
          251 137 -224 hlineto
          70 355 rlineto
          -214 -355 rmoveto
          -263 hlineto
          69 355 rlineto
          263 hlineto
          endchar
        </CharString>
        <CharString name="o">
          64 -20 150 822 150 -39 callsubr
          92 552 -106 callgsubr
        </CharString>
        <CharString name="o.ss06">
          78 -31 callsubr
          90 187 630 -55 callgsubr
          90 552 rmoveto
          -23 vlineto
          -313 199 -236 303 303 198 236 313 vhcurveto
          23 vlineto
          313 -198 237 -305 -301 -199 -237 -313 vhcurveto
          187 -23 rmoveto
          23 vlineto
          213 111 187 202 204 113 -187 -213 vhcurveto
          -23 vlineto
          -215 -113 -184 -202 -204 -111 184 215 vhcurveto
          endchar
        </CharString>
        <CharString name="oacute">
          64 -77 callsubr
          19 callgsubr
          -39 callsubr
          676 13 callsubr
          -91 callgsubr
          -809 -984 -106 callgsubr
        </CharString>
        <CharString name="ocircumflex">
          64 -77 callsubr
          151 283 -39 callsubr
          879 1263 rmoveto
          -101 callgsubr
          149 170 150 -170 rlineto
          154 hlineto
          -787 -701 -106 callgsubr
        </CharString>
        <CharString name="odieresis">
          64 -77 callsubr
          164 8 callgsubr
          92 187 -27 -69 callsubr
          -13 -30 callgsubr
          hintmask 11100110
          362 1478 -89 callsubr
          -95 callsubr
          hintmask 11011001
          -700 -924 -106 callgsubr
        </CharString>
        <CharString name="oe">
          754 -21 151 369 150 303 10 callsubr
          97 187 594 197 529 -81 callgsubr
          1791 620 rmoveto
          282 -143 200 -298 vhcurveto
          -148 1 -138 -81 -86 -135 rrcurveto
          132 -81 -137 83 -180 hhcurveto
          -302 -181 -237 -313 hvcurveto
          -23 vlineto
          -313 181 -237 304 178 135 81 131 81 vhcurveto
          -132 84 139 -80 179 hhcurveto
          196 121 69 65 65 hvcurveto
          -73 125 rlineto
          -61 -67 -96 -47 -146 hhcurveto
          -193 -103 164 205 -7 hvcurveto
          716 hlineto
          -913 30 rmoveto
          -215 -93 -184 -203 -205 -93 184 215 vhcurveto
          23 vlineto
          213 93 187 203 205 93 -187 -213 vhcurveto
          726 97 rmoveto
          -523 hlineto
          173 26 104 130 139 hhcurveto
          176 78 -131 -146 hvcurveto
          endchar
        </CharString>
        <CharString name="ograve">
          64 -77 callsubr
          19 callgsubr
          -39 callsubr
          664 13 callgsubr
          -99 callsubr
          -412 -691 -106 callgsubr
        </CharString>
        <CharString name="one">
          46 21 -21 1464 -20 hstem
          543 -81 callgsubr
          730 hmoveto
          1464 -29 vlineto
          -530 -199 rlineto
          -167 vlineto
          372 137 rlineto
          -1235 vlineto
          endchar
        </CharString>
        <CharString name="one.smcp">
          -65 -9 callgsubr
          483 188 vstem
          671 hmoveto
          1168 -27 vlineto
          -492 -164 rlineto
          -158 vlineto
          331 99 rlineto
          -945 vlineto
          endchar
        </CharString>
        <CharString name="one.sup">
          -9 callgsubr
          338 158 vstem
          496 hmoveto
          -53 callgsubr
        </CharString>
        <CharString name="one.tnum">
          -124 endchar
        </CharString>
        <CharString name="ordfeminine">
          -189 692 136 210 111 188 140 hstemhm
          147 164 -149 162 270 164 hintmask 11101100
          784 706 rmoveto
          -18 58 -8 58 65 vvcurveto
          314 vlineto
          183 -115 93 -172 -187 -122 -98 -135 vhcurveto
          162 -13 rlineto
          69 55 37 92 83 40 -48 -87 vhcurveto
          -53 -108 vlineto
          hintmask 11110100
          -227 -112 -84 -147 -137 89 -89 160 96 67 40 46 42 hvcurveto
          4 -25 6 -24 7 -23 rrcurveto
          -183 122 rmoveto
          -85 -39 36 58 64 55 52 121 hvcurveto
          107 -143 hlineto
          -36 -36 -65 -31 -58 hhcurveto
          endchar
        </CharString>
        <CharString name="ordmasculine">
          -173 691 138 508 140 hstem
          123 164 357 164 vstem
          123 1124 rmoveto
          -81 vlineto
          -206 132 -146 212 210 131 146 206 vhcurveto
          81 vlineto
          206 -131 147 -212 -210 -132 -147 -206 vhcurveto
          164 -81 rmoveto
          81 vlineto
          120 58 93 120 121 58 -93 -120 vhcurveto
          -81 vlineto
          -122 -58 -92 -119 -123 -57 92 122 vhcurveto
          endchar
        </CharString>
        <CharString name="oslash">
          56 -77 callsubr
          107 -20 -39 callsubr
          883 1004 rmoveto
          101 205 rlineto
          -124 hlineto
          -73 -148 rlineto
          27 -60 -68 14 -76 hhcurveto
          -302 -189 -237 -313 hvcurveto
          -23 vlineto
          -197 75 -166 131 -97 vhcurveto
          -101 -204 rlineto
          124 hlineto
          74 150 rlineto
          -23 57 63 -12 70 hhcurveto
          304 188 236 313 hvcurveto
          23 vlineto
          191 -70 163 -124 98 vhcurveto
          -604 -475 rmoveto
          23 vlineto
          213 101 187 203 51 45 -12 -20 38 vhcurveto
          -343 -696 rlineto
          -63 74 -32 111 120 vvcurveto
          611 hmoveto
          -215 -102 -184 -203 -45 -41 9 16 -35 vhcurveto
          340 689 rlineto
          57 -74 29 -105 -113 vvcurveto
          endchar
        </CharString>
        <CharString name="otilde">
          64 -77 callsubr
          161 -51 callsubr
          92 187 -57 -51 callgsubr
          -40 -30 callgsubr
          hintmask 11101010
          930 1504 rmoveto
          -93 callgsubr
          hintmask 11010101
          -95 callgsubr
          -65 callgsubr
          hintmask 11101010
          -66 callsubr
          hintmask 11101001
          -838 -952 -106 callgsubr
        </CharString>
        <CharString name="p">
          45 -20 150 817 -6 callsubr
          541 -81 callgsubr
          633 1102 rmoveto
          -136 -104 -49 -89 -73 hvcurveto
          -10 118 rlineto
          -170 -8 callgsubr
          151 -24 callgsubr
          -150 222 -272 vhcurveto
          235 25 callgsubr
          -89 -25 callgsubr
          89 24 callgsubr
        </CharString>
        <CharString name="p.ss06">
          61 -20 150 817 -6 callsubr
          561 -81 callgsubr
          633 1102 rmoveto
          -139 -104 -51 -92 -74 hvcurveto
          -16 123 rlineto
          -160 -8 callgsubr
          171 -24 callgsubr
          -170 222 -272 vhcurveto
          255 25 callgsubr
          -109 -25 callgsubr
          109 -174 -223 hvcurveto
          endchar
        </CharString>
        <CharString name="paragraph">
          -103 -76 callsubr
          hstem
          646 188 vstem
          646 hmoveto
          188 -70 callsubr
          -275 hlineto
          -318 -174 -200 -268 -270 174 -198 318 hvcurveto
          87 hlineto
          endchar
        </CharString>
        <CharString name="parenleft">
          -403 -470 2113 hstem
          133 -81 callgsubr
          133 591 rmoveto
          -10 vlineto
          -582 302 -363 189 -106 vhcurveto
          39 111 rlineto
          -156 129 -187 304 505 vvcurveto
          15 vlineto
          505 187 304 156 119 vhcurveto
          -39 121 rlineto
          -189 -105 -302 -366 -581 vvcurveto
          endchar
        </CharString>
        <CharString name="parenright">
          -391 -470 2113 hstem
          382 -55 callgsubr
          568 581 rmoveto
          10 vlineto
          581 -301 366 -189 105 vhcurveto
          -39 -112 rlineto
          142 -117 201 -315 -505 vvcurveto
          -15 vlineto
          -505 -187 -314 -156 -119 vhcurveto
          39 -111 rlineto
          189 106 301 363 582 vvcurveto
          endchar
        </CharString>
        <CharString name="percent">
          395 -21 120 438 120 143 120 437 120 hstem
          105 140 318 140 111 139 319 139 vstem
          105 1176 rmoveto
          -77 vlineto
          -163 113 -136 187 186 112 136 163 vhcurveto
          77 vlineto
          165 -112 136 -188 -185 -113 -136 -165 vhcurveto
          140 -77 rmoveto
          77 vlineto
          94 52 87 106 108 52 -87 -94 vhcurveto
          -77 vlineto
          -93 -51 -86 -107 -109 -51 87 92 vhcurveto
          202 -988 2 callgsubr
          472 180 rmoveto
          -78 vlineto
          -164 113 -136 187 185 112 136 164 vhcurveto
          78 vlineto
          164 -112 136 -187 -185 -113 -136 -164 vhcurveto
          139 -78 rmoveto
          78 vlineto
          94 52 86 107 108 52 -86 -94 vhcurveto
          -78 vlineto
          -94 -51 -86 -107 -109 -52 87 93 vhcurveto
          endchar
        </CharString>
        <CharString name="period">
          -564 -11 220 hstemhm
          144 231 hintmask 00000000
          hintmask 11000000
          259 209 rmoveto
          -85 callgsubr
          endchar
        </CharString>
        <CharString name="periodcentered">
          -569 620 220 hstem
          147 231 vstem
          262 840 rmoveto
          -75 -40 -48 -63 -61 40 -48 75 76 40 48 61 63 -40 48 -76 hvcurveto
          endchar
        </CharString>
        <CharString name="plus">
          57 607 173 426 -20 hstem
          484 -81 callgsubr
          1076 780 rmoveto
          -405 426 -187 -426 -406 -173 406 -461 187 461 405 hlineto
          endchar
        </CharString>
        <CharString name="plusminus">
          -10 1 150 553 10 callsubr
          482 169 vstem
          651 854 rmoveto
          413 -169 -413 -385 -150 385 -415 169 415 362 150 vlineto
          -878 -853 rmoveto
          835 150 -835 hlineto
          endchar
        </CharString>
        <CharString name="q">
          60 -31 callsubr
          95 187 539 -81 callgsubr
          837 1082 rmoveto
          -8 -107 rlineto
          82 -72 -100 45 -131 hhcurveto
          -271 -160 -222 -43 callgsubr
          162 -233 267 127 98 42 76 72 vhcurveto
          -514 187 1498 vlineto
          -437 -952 rmoveto
          -200 -89 183 -15 callgsubr
          216 89 186 202 118 80 -60 -81 50 vhcurveto
          -536 vlineto
          -85 -51 -77 -60 -122 hhcurveto
          endchar
        </CharString>
        <CharString name="q.ss06">
          76 -31 callsubr
          91 187 560 -81 callgsubr
          863 1082 rmoveto
          -14 -112 rlineto
          85 -72 -101 47 -133 hhcurveto
          -272 -180 -223 -43 callgsubr
          182 -232 268 127 98 42 77 72 vhcurveto
          -515 187 1498 vlineto
          -438 -952 rmoveto
          -200 -109 182 -15 callgsubr
          224 109 179 202 119 80 -61 -82 50 vhcurveto
          -532 vlineto
          -86 -51 -78 -61 -122 hhcurveto
          endchar
        </CharString>
        <CharString name="question">
          -136 -11 210 -189 -21 1327 160 hstemhm
          75 187 87 220 -212 187 157 186 hintmask 01110110
          357 410 rmoveto
          -13 callgsubr
          99 20 87 73 67 vhcurveto
          127 120 123 134 179 vvcurveto
          234 -145 146 -255 -231 -178 -135 -226 -3 9 callsubr
          139 109 62 116 139 75 -86 -139 -137 -81 -64 -91 -94 vhcurveto
          -127 -130 -43 -64 -2 -192 rrcurveto
          hintmask 10111010
          102 -211 rmoveto
          -72 -38 -47 -59 -59 38 -45 72 72 38 45 59 59 -38 47 -72 hvcurveto
          endchar
        </CharString>
        <CharString name="questiondown">
          -135 -386 161 1117 210 hstemhm
          68 187 122 220 -194 -30 callgsubr
          hintmask 11110000
          488 892 -11 callgsubr
          hintmask 10101000
          102 -212 rmoveto
          28 callgsubr
          -98 -19 -82 -71 -69 vhcurveto
          -120 -117 -125 -138 -182 vvcurveto
          -240 150 -140 260 232 177 138 228 3 vhcurveto
          28 callgsubr
          -139 -1 -108 -66 -116 hhcurveto
          -144 -79 79 145 139 80 70 85 91 hvcurveto
          123 134 45 56 2 191 rrcurveto
          endchar
        </CharString>
        <CharString name="quotedbl">
          -447 1044 492 hstem
          137 141 130 141 vstem
          278 1400 rmoveto
          136 -141 -145 vlineto
          -1 -347 rlineto
          112 hlineto
          301 356 rmoveto
          136 -141 -138 vlineto
          -1 -354 rlineto
          112 hlineto
          endchar
        </CharString>
        <CharString name="quotedblbase">
          -396 -300 546 hstem
          131 186 111 -81 callgsubr
          317 79 rmoveto
          167 -186 -170 vlineto
          -115 -32 -96 -63 2 callsubr
          298 hmoveto
          167 -187 -170 vlineto
          -115 -32 -96 -62 2 callsubr
          endchar
        </CharString>
        <CharString name="quotedblleft">
          -378 1074 482 hstem
          105 185 131 -38 callsubr
          105 1195 rmoveto
          -64 callsubr
          316 hmoveto
          -64 callsubr
          endchar
        </CharString>
        <CharString name="quotedblright">
          -371 1047 489 hstem
          156 185 123 -38 callsubr
          341 1408 rmoveto
          -63 callgsubr
          308 hmoveto
          -63 callgsubr
          endchar
        </CharString>
        <CharString name="quoteleft">
          -694 1074 482 hstem
          96 -38 callsubr
          96 1195 rmoveto
          -64 callsubr
          endchar
        </CharString>
        <CharString name="quoteright">
          -694 1047 489 hstem
          144 -38 callsubr
          329 1408 rmoveto
          -63 callgsubr
          endchar
        </CharString>
        <CharString name="quotesinglbase">
          -696 -282 465 hstem
          131 -55 callgsubr
          317 79 rmoveto
          104 -186 -107 vlineto
          -107 -32 -91 -63 -88 vhcurveto
          106 -72 rlineto
          111 91 64 149 121 vvcurveto
          endchar
        </CharString>
        <CharString name="quotesingle">
          -747 1058 478 hstem
          104 151 vstem
          255 1425 rmoveto
          111 -151 -127 vlineto
          -1 -351 rlineto
          130 hlineto
          endchar
        </CharString>
        <CharString name="r">
          -411 21 -21 925 177 25 callsubr
          vstem
          582 1102 rmoveto
          -117 -85 -55 -88 -54 hvcurveto
          -4 123 rlineto
          -182 -1082 187 768 hlineto
          95 40 80 62 126 hhcurveto
          35 24 -2 -6 32 hvcurveto
          171 vlineto
          6 -13 -44 8 -25 hhcurveto
          endchar
        </CharString>
        <CharString name="registered">
          504 -21 119 557 127 257 126 192 119 hstemhm
          90 116 305 142 310 142 -136 141 283 117 hintmask 1111111010000000
          800 -18 callsubr
          392 14 callsubr
          -392 -53 callsubr
          305 416 rmoveto
          94 -31 77 -93 37 vhcurveto
          hintmask 1111110110000000
          84 42 45 63 83 vvcurveto
          171 -124 84 -198 vhcurveto
          -277 -848 142 338 163 hlineto
          hintmask 1111111010000000
          107 40 -45 -97 hvcurveto
          -52 vlineto
          -29 0 -81 13 -34 vhcurveto
          146 16 hlineto
          -12 30 -5 47 50 vvcurveto
          hintmask 1111110110000000
          -296 322 rmoveto
          -156 257 135 hlineto
          135 46 -35 -100 -79 -76 -41 -84 -2 hvcurveto
          endchar
        </CharString>
        <CharString name="ring">
          -418 1205 88 234 89 hstem
          121 100 232 99 vstem
          337 1616 rmoveto
          -123 -93 -92 -116 7 callgsubr
          121 94 87 116 116 -94 92 -121 hvcurveto
          -323 vmoveto
          -68 -48 56 59 63 48 56 68 68 48 -56 -63 -60 -48 -55 -68 hvcurveto
          endchar
        </CharString>
        <CharString name="s">
          -48 -77 callsubr
          hstemhm
          132 187 440 187 -176 187 hintmask 11101000
          522 475 rmoveto
          -79 callsubr
          hintmask 11110000
          145 81 -98 -89 hvcurveto
          -13 callgsubr
          186 -153 151 -260 -243 -158 -145 -171 vhcurveto
          hintmask 11101000
          -178 150 -83 240 -50 vhcurveto
          endchar
        </CharString>
        <CharString name="section">
          152 -495 150 1671 151 hstemhm
          90 187 -181 187 -142 187 586 187 -165 187 -164 187 hintmask 11001100
          959 158 rmoveto
          hintmask 11001001
          118 53 69 94 126 vvcurveto
          249 -171 92 -298 82 vhcurveto
          -281 78 -68 47 134 vvcurveto
          116 94 97 209 vhcurveto
          hintmask 11001010
          198 107 -126 -154 hvcurveto
          -13 callgsubr
          278 -187 153 -305 -298 -192 -145 -221 -132 49 -88 89 -66 vhcurveto
          hintmask 11010100
          -116 -54 -67 -96 -124 vvcurveto
          -249 175 -97 292 -78 vhcurveto
          270 -81 81 -53 -124 vvcurveto
          -121 -109 -93 -192 vhcurveto
          hintmask 11100100
          -157 -179 70 213 hvcurveto
          -187 -2 rlineto
          -324 266 -107 257 295 193 134 232 vhcurveto
          hintmask 11001100
          135 -49 87 -93 65 vhcurveto
          hintmask 11010001
          -676 395 rmoveto
          93 49 73 106 25 vhcurveto
          50 -19 55 -17 60 -16 rrcurveto
          272 -82 84 -57 -125 vvcurveto
          -91 -57 -72 -104 -27 vhcurveto
          -48 18 -54 17 -59 16 rrcurveto
          -285 79 -69 50 135 vvcurveto
          endchar
        </CharString>
        <CharString name="semicolon">
          -671 -290 1383 -220 220 hstemhm
          110 231 -201 183 hintmask 00000000
          hintmask 01100000
          225 1093 rmoveto
          -85 callgsubr
          hintmask 10010000
          98 -1022 -37 callsubr
        </CharString>
        <CharString name="seven">
          46 21 -21 1306 10 callsubr
          78 985 vstem
          1063 1353 rmoveto
          103 -985 -150 787 vlineto
          -601 -1306 rlineto
          196 hlineto
          endchar
        </CharString>
        <CharString name="seven.frac">
          1325 -23 callsubr
          1364 -65 callsubr
        </CharString>
        <CharString name="seven.smcp">
          -65 21 -21 1014 -12 callsubr
          66 895 vstem
          961 1061 rmoveto
          104 -895 -151 697 vlineto
          -534 -1014 rlineto
          197 hlineto
          endchar
        </CharString>
        <CharString name="seven.sup">
          21 -21 661 -23 callsubr
          700 -65 callsubr
        </CharString>
        <CharString name="seven.tnum">
          -35 endchar
        </CharString>
        <CharString name="six">
          12 callsubr
          133 187 549 184 vstem
          636 -88 callgsubr
        </CharString>
        <CharString name="six.frac">
          653 -73 callgsubr
          1188 -103 callsubr
        </CharString>
        <CharString name="six.smcp">
          -66 -16 151 486 150 246 155 hstem
          114 187 471 184 vstem
          581 771 rmoveto
          -120 -97 -52 -67 -61 hvcurveto
          208 15 124 157 312 hhcurveto
          15 155 -20 hlineto
          -484 -151 -292 -358 hvcurveto
          -84 vlineto
          -247 147 -207 282 265 148 174 224 205 -116 184 -259 vhcurveto
          -40 -636 rmoveto
          -128 -112 105 198 hvcurveto
          42 vlineto
          81 39 95 60 107 hhcurveto
          153 77 -110 -134 -139 -86 -103 -145 hvcurveto
          endchar
        </CharString>
        <CharString name="six.sup">
          -11 -73 callgsubr
          524 -103 callsubr
        </CharString>
        <CharString name="six.tnum">
          12 callsubr
          126 187 549 184 vstem
          629 -88 callgsubr
        </CharString>
        <CharString name="slash">
          -259 -5 callgsubr
          18 767 vstem
          178 -125 rmoveto
          607 1581 rlineto
          -159 hlineto
          -608 -1581 rlineto
          endchar
        </CharString>
        <CharString name="space">
          -597 endchar
        </CharString>
        <CharString name="st">
          587 -20 150 811 141 -130 150 297 154 hstemhm
          132 187 351 179 -90 188 -177 187 271 187 hintmask 1101010010000000
          1620 149 rmoveto
          -4 -17 -39 -7 -31 hhcurveto
          -61 -57 33 126 hvcurveto
          644 201 141 -201 87 vlineto
          166 -68 218 -318 -214 -145 -126 -163 vhcurveto
          hintmask 1011110010000000
          -63 18 -62 26 -66 vhcurveto
          19 -52 -61 10 -68 hhcurveto
          -243 -158 -145 -171 -178 150 -83 240 -50 hvcurveto
          hintmask 1011100110000000
          -79 callsubr
          hintmask 1011001010000000
          145 81 -98 -89 hvcurveto
          188 hlineto
          hintmask 1011010010000000
          211 -98 105 160 vvcurveto
          93 62 65 117 143 57 -95 -136 vhcurveto
          hintmask 1101010010000000
          -86 -188 -141 188 -643 vlineto
          -230 113 -88 137 67 47 11 9 29 vhcurveto
          endchar
        </CharString>
        <CharString name="sterling">
          86 0 156 467 156 541 156 hstemhm
          242 194 -172 190 453 194 hintmask 00000000
          hintmask 11101100
          396 156 rmoveto
          42 62 21 90 -1 94 -8 221 rcurveline
          313 156 hlineto
          hintmask 11110100
          -318 hlineto
          -9 260 rlineto
          181 104 100 131 123 113 -65 -168 vhcurveto
          194 hlineto
          232 -153 157 -261 -255 -190 -161 -276 vhcurveto
          9 -260 rlineto
          -160 -156 hlineto
          hintmask 11101100
          165 hlineto
          8 -222 rlineto
          -89 -23 -139 -69 -17 vhcurveto
          -77 -156 1033 hlineto
          1 156 rlineto
          endchar
        </CharString>
        <CharString name="sterling.smcp">
          -28 0 151 350 121 405 154 hstemhm
          206 187 -180 186 383 -30 callgsubr
          hintmask 11101100
          349 151 rmoveto
          40 81 14 115 -4 119 -1 35 rcurveline
          400 121 hlineto
          hintmask 11110100
          -403 hlineto
          -4 122 rlineto
          185 -6 75 98 122 hhcurveto
          108 92 -62 -171 hvcurveto
          -13 callgsubr
          231 -129 156 -258 -234 -153 -161 -276 9 vhcurveto
          4 -122 rlineto
          -159 -121 hlineto
          hintmask 11101100
          163 hlineto
          1 -35 4 -116 -17 -177 -76 -22 rlinecurve
          -10 -151 893 hlineto
          1 151 rlineto
          endchar
        </CharString>
        <CharString name="t">
          -435 -20 158 803 20 callgsubr
          206 -30 callgsubr
          hintmask 11100000
          598 -26 callsubr
          263 -187 -263 -197 -141 197 -672 vlineto
          0 callsubr
        </CharString>
        <CharString name="thorn">
          76 -20 150 817 155 hstem
          149 187 542 -81 callgsubr
          642 1102 rmoveto
          -132 -101 -46 -83 -73 hvcurveto
          563 -187 -1952 187 520 vlineto
          -80 73 102 -44 134 hhcurveto
          268 152 -24 callgsubr
          -151 222 -272 vhcurveto
          236 25 callgsubr
          -90 -183 -199 -127 -77 62 85 -49 vhcurveto
          521 vlineto
          86 48 79 63 124 hhcurveto
          201 90 24 callgsubr
        </CharString>
        <CharString name="three">
          46 -20 150 538 150 508 19 callsubr
          95 187 -175 187 515 187 -165 187 hintmask 11110010
          768 748 rmoveto
          hintmask 11101100
          159 68 69 141 108 vvcurveto
          270 -177 141 -263 -270 -179 -178 -223 9 callsubr
          153 106 98 156 170 83 -91 -166 -144 -94 -107 -192 vhcurveto
          -132 -150 132 hlineto
          hintmask 11110010
          187 121 -84 -182 -182 -105 -90 -169 -170 -105 102 153 hvcurveto
          28 callgsubr
          -259 208 -146 254 262 199 154 272 133 -57 147 -193 62 vhcurveto
          endchar
        </CharString>
        <CharString name="three.smcp">
          -65 20 callsubr
          386 147 363 151 hstemhm
          78 187 -174 187 442 187 -167 188 hintmask 11110010
          715 598 rmoveto
          hintmask 11101100
          133 53 59 104 96 vvcurveto
          216 -164 114 -242 -241 -169 -134 -185 9 callsubr
          103 93 65 131 147 71 -69 -110 -107 -80 -77 -165 vhcurveto
          -123 -147 123 hlineto
          hintmask 11110010
          162 103 -59 -137 -120 -90 -70 -148 -143 -94 74 106 hvcurveto
          28 callgsubr
          -220 197 -110 226 243 184 123 218 119 -53 107 -160 47 vhcurveto
          endchar
        </CharString>
        <CharString name="three.sup">
          -11 -73 callsubr
          405 -96 callgsubr
        </CharString>
        <CharString name="three.tnum">
          7 endchar
        </CharString>
        <CharString name="tilde">
          -137 1259 -51 callsubr
          124 -51 callgsubr
          hintmask 10110000
          832 1500 rmoveto
          -93 callgsubr
          hintmask 01110000
          -95 callgsubr
          -65 callgsubr
          hintmask 10110000
          -66 callsubr
          endchar
        </CharString>
        <CharString name="tildecomb">
          -1105 1259 -51 callsubr
          -886 -51 callgsubr
          hintmask 10110000
          -178 1500 rmoveto
          -93 callgsubr
          hintmask 01110000
          -95 callgsubr
          -65 callgsubr
          hintmask 10110000
          -66 callsubr
          endchar
        </CharString>
        <CharString name="two">
          46 -20 callgsubr
          1176 10 callsubr
          93 187 542 -81 callgsubr
          1076 hmoveto
          150 -730 vlineto
          390 425 rlineto
          149 162 124 178 172 vvcurveto
          233 -165 156 -274 -312 -165 -202 -246 9 callsubr
          175 94 123 196 161 91 -117 -144 -114 -47 -92 -177 -196 vhcurveto
          -477 -531 rlineto
          -132 vlineto
          endchar
        </CharString>
        <CharString name="two.smcp">
          -65 -20 callgsubr
          880 -12 callsubr
          78 188 462 -81 callgsubr
          971 hmoveto
          150 -637 vlineto
          327 281 rlineto
          142 148 112 121 147 vvcurveto
          198 -151 136 -246 -281 -159 -167 -204 vhcurveto
          188 hlineto
          132 77 88 175 132 78 -81 -107 -80 -44 -78 -152 -140 vhcurveto
          -427 -414 rlineto
          -130 vlineto
          endchar
        </CharString>
        <CharString name="two.sup">
          0 -45 callgsubr
          hmoveto
          -90 callsubr
        </CharString>
        <CharString name="two.tnum">
          49 endchar
        </CharString>
        <CharString name="u">
          24 -46 callgsubr
          -23 callgsubr
          hintmask 10110000
          802 1082 -96 callsubr
          hintmask 01110000
          -42 callsubr
        </CharString>
        <CharString name="uacute">
          -27 callsubr
          893 13 callsubr
          -83 callsubr
          178 -161 -96 callsubr
          hintmask 01111000
          -42 callsubr
        </CharString>
        <CharString name="ucircumflex">
          24 -46 callgsubr
          1253 283 -23 callgsubr
          hintmask 10111000
          567 1423 rmoveto
          150 -170 rlineto
          154 10 hlineto
          -101 callgsubr
          384 -171 -96 callsubr
          hintmask 01111000
          -42 callsubr
        </CharString>
        <CharString name="udieresis">
          24 -46 callgsubr
          1266 8 callgsubr
          136 187 -79 -69 callsubr
          -93 -30 callgsubr
          hintmask 10100110
          354 -92 callsubr
          hintmask 10011001
          18 -184 -96 callsubr
          hintmask 01011001
          -42 callsubr
        </CharString>
        <CharString name="ugrave">
          -27 callsubr
          656 13 callgsubr
          -99 callsubr
          306 -161 -96 callsubr
          hintmask 01111000
          -42 callsubr
        </CharString>
        <CharString name="underscore">
          -180 -150 10 callsubr
          4 917 vstem
          921 -150 rmoveto
          150 -917 27 callsubr
        </CharString>
        <CharString name="uni00AD">
          -505 -25 callsubr
        </CharString>
        <CharString name="uni00B2">
          667 -45 callgsubr
          667 rmoveto
          -90 callsubr
        </CharString>
        <CharString name="uni00B3">
          656 -73 callsubr
          1072 -96 callgsubr
        </CharString>
        <CharString name="uni00B9">
          -5 callgsubr
          338 158 vstem
          496 667 rmoveto
          -53 callgsubr
        </CharString>
        <CharString name="uni05B0">
          6 callsubr
          85 -29 callsubr
          -41 34 -32 44 hvcurveto
          -231 vmoveto
          -45 callsubr
          endchar
        </CharString>
        <CharString name="uni05B1">
          6 callsubr
          -111 146 50 146 hstemhm
          291 156 -42 157 -43 156 74 156 hintmask 00000000
          hintmask 01110110
          369 -316 rmoveto
          -45 callsubr
          228 hmoveto
          -45 callsubr
          231 hmoveto
          -8 callsubr
          hintmask 01101010
          -344 -196 rmoveto
          44 34 30 42 42 -34 32 -44 -45 -34 -32 -42 -42 34 -30 45 hvcurveto
          hintmask 10101010
          344 -35 rmoveto
          -8 callsubr
          endchar
        </CharString>
        <CharString name="uni05B2">
          12 callgsubr
          739 157 hintmask 00000000
          hintmask 01010000
          818 -2 callgsubr
          -41 34 -32 45 hvcurveto
          hintmask 10110000
          -517 27 rmoveto
          367 94 -367 hlineto
          517 -352 -72 callgsubr
          -41 34 -32 45 hvcurveto
          endchar
        </CharString>
        <CharString name="uni05B3">
          12 callgsubr
          410 155 174 157 hintmask 00000000
          hintmask 01011000
          818 -2 callgsubr
          -41 34 -32 45 hvcurveto
          -330 -214 rmoveto
          44 33 31 42 hvcurveto
          hintmask 00111000
          49 -39 5 -7 114 vhcurveto
          152 94 -371 -94 156 hlineto
          -7 -114 -39 -5 -49 vvcurveto
          hintmask 01011000
          -39 34 -34 44 vhcurveto
          hintmask 10111000
          330 -17 -72 callgsubr
          -41 34 -32 45 hvcurveto
          endchar
        </CharString>
        <CharString name="uni05B4">
          -1105 -316 -29 callsubr
          -38 34 -35 44 hvcurveto
          endchar
        </CharString>
        <CharString name="uni05B5">
          -1105 -316 146 hstem
          405 157 70 157 vstem
          -58 callsubr
          endchar
        </CharString>
        <CharString name="uni05B6">
          -1105 -512 146 50 146 hstemhm
          405 157 -43 156 -43 157 hintmask 00000000
          hintmask 11101000
          -58 callsubr
          hintmask 11010000
          -114 -196 rmoveto
          45 33 30 42 42 -33 32 -45 -44 -34 -32 -42 -42 34 -30 44 hvcurveto
          endchar
        </CharString>
        <CharString name="uni05B7">
          -1105 -289 94 hstem
          395 404 vstem
          395 -289 1 callgsubr
        </CharString>
        <CharString name="uni05B8">
          -1105 -289 94 hstem
          521 157 vstem
          600 -535 rmoveto
          44 34 32 41 50 -39 4 -8 119 hvcurveto
          155 94 -377 -94 3 callgsubr
          vhcurveto
          endchar
        </CharString>
        <CharString name="uni05B9">
          -52 callgsubr
        </CharString>
        <CharString name="uni05BA">
          -52 callgsubr
        </CharString>
        <CharString name="uni05BB">
          -1105 -687 147 39 146 39 146 hstemhm
          520 156 -31 157 -31 156 hintmask 11110100
          598 -1 callsubr
          -38 34 -35 44 hvcurveto
          hintmask 11101000
          126 -185 rmoveto
          44 34 31 41 41 -34 33 -44 -45 -34 -32 -42 -38 34 -34 45 hvcurveto
          hintmask 11110100
          125 -186 rmoveto
          45 -36 callgsubr
          32 -45 -44 -34 -32 -42 -38 34 -35 44 hvcurveto
          endchar
        </CharString>
        <CharString name="uni05BC">
          -1105 525 147 hstem
          238 157 vstem
          316 525 -105 callsubr
        </CharString>
        <CharString name="uni05BE">
          -588 26 callsubr
          60 397 vstem
          457 1029 rmoveto
          149 -397 -149 vlineto
          endchar
        </CharString>
        <CharString name="uni05BF">
          -1105 1357 107 hstem
          240 487 vstem
          240 -11 callsubr
          endchar
        </CharString>
        <CharString name="uni05C1">
          -17 callsubr
          1249 157 vstem
          1328 1331 rmoveto
          44 34 30 42 -44 callsubr
          -38 34 -34 45 hvcurveto
          endchar
        </CharString>
        <CharString name="uni05C2">
          -17 callsubr
          160 157 vstem
          238 -67 callgsubr
          -44 -34 -31 -42 -38 34 -34 44 hvcurveto
          endchar
        </CharString>
        <CharString name="uni05D0">
          209 21 -10 callsubr
          -100 callsubr
          endchar
        </CharString>
        <CharString name="uni05D1">
          -26 5 callsubr
          701 -38 callsubr
          886 157 -82 callsubr
          endchar
        </CharString>
        <CharString name="uni05D2">
          -88 callsubr
        </CharString>
        <CharString name="uni05D2.001">
          -88 callsubr
        </CharString>
        <CharString name="uni05D3">
          -38 -85 callsubr
          620 -26 callgsubr
          endchar
        </CharString>
        <CharString name="uni05D4">
          99 -85 callsubr
          150 180 536 -47 callgsubr
          -716 -739 -28 callgsubr
        </CharString>
        <CharString name="uni05D5">
          -501 21 callsubr
          vstem
          237 hmoveto
          4 callgsubr
        </CharString>
        <CharString name="uni05D6">
          -381 -85 callsubr
          76 572 -34 callsubr
          endchar
        </CharString>
        <CharString name="uni05D7">
          138 -85 callsubr
          181.5 185 538.5 -38 callsubr
          181 hmoveto
          185 hlineto
          1 1029 rlineto
          260 hlineto
          195 83 -87 -204 hvcurveto
          -738 185 727 vlineto
          304 -1 -152 147 -312 hhcurveto
          -443 hlineto
          endchar
        </CharString>
        <CharString name="uni05D8">
          158 -22 148 908 155 -11 -20 hstemhm
          181 185 569 186 hintmask 11011000
          -80 callgsubr
          hintmask 10111000
          740 -185 -727 vlineto
          hintmask 11011000
          -284 189 -189 282 vhcurveto
          endchar
        </CharString>
        <CharString name="uni05D9">
          -487 26 callsubr
          271 -55 callgsubr
          271 521 -77 callgsubr
          endchar
        </CharString>
        <CharString name="uni05DA">
          -91 26 callsubr
          651 -17 callgsubr
          endchar
        </CharString>
        <CharString name="uni05DB">
          -4 -17 149 897 149 hstem
          735 -38 callsubr
          414 -17 -87 callgsubr
          endchar
        </CharString>
        <CharString name="uni05DC">
          -53 -85 callsubr
          83 -38 callsubr
          -41 callgsubr
          endchar
        </CharString>
        <CharString name="uni05DD">
          196 5 callsubr
          180 185 570 -38 callsubr
          180 hmoveto
          940 1178 -940 hlineto
          185 -1028 rmoveto
          879 570 -879 vlineto
          endchar
        </CharString>
        <CharString name="uni05DE">
          194 0 149 895 156 hstem
          962 -84 callgsubr
          endchar
        </CharString>
        <CharString name="uni05DF">
          -516 26 callsubr
          225 183 vstem
          225 -416 rmoveto
          183 1594 -322 -149 139 hlineto
          endchar
        </CharString>
        <CharString name="uni05E0">
          -363 -20 154 -133 -21 1049 149 hstemhm
          375 186 hintmask 10110000
          -49 callsubr
          hintmask 01110000
          -5 -145 rlineto
          hintmask 10110000
          -14 63 59 -8 69 hhcurveto
          endchar
        </CharString>
        <CharString name="uni05E1">
          200 -22 157 909 156 hstem
          170 186 626 -92 callgsubr
          endchar
        </CharString>
        <CharString name="uni05E2">
          80 -25 144 1059 -20 hstem
          819 -38 callsubr
          819 -56 callsubr
          -713 vlineto
          -187 -99 -115 -157 -34 vhcurveto
          -28 48 -17 56 -16 76 -191 30 callsubr
          19 -86 36 -62 44 -52 rlinecurve
          -91 7 -105 24 -117 46 -45 -138 rcurveline
          -59 155 141 -24 123 hhcurveto
          310 214 173 324 hvcurveto
          706 vlineto
          endchar
        </CharString>
        <CharString name="uni05E3">
          110 403 160 466 11 callsubr
          476 -79 callgsubr
          endchar
        </CharString>
        <CharString name="uni05E4">
          -3 callgsubr
          416 149 hstem
          190 185 543 -38 callsubr
          583 -20 -99 callgsubr
          endchar
        </CharString>
        <CharString name="uni05E5">
          -9 1178 -20 hstem
          595 175 vstem
          689 540 rmoveto
          363 638 rlineto
          -209 hlineto
          -263 -477 -312 477 rlineto
          -209 hlineto
          498 -729 rlineto
          26 -38 12 -43 -54 vvcurveto
          -730 175 713 vlineto
          86 -17 65 -40 58 vhcurveto
          endchar
        </CharString>
        <CharString name="uni05E6">
          14 -20 callgsubr
          1028 -20 hstem
          59 993 -55 callsubr
          endchar
        </CharString>
        <CharString name="uni05E7">
          168 -85 callsubr
          202 180 524 -80 callsubr
          endchar
        </CharString>
        <CharString name="uni05E8">
          -100 -85 callsubr
          667 -47 callsubr
          endchar
        </CharString>
        <CharString name="uni05E8.001">
          -94 callsubr
        </CharString>
        <CharString name="uni05E8.002">
          -94 callsubr
        </CharString>
        <CharString name="uni05E8.003">
          -94 callsubr
        </CharString>
        <CharString name="uni05E8.004">
          -94 callsubr
        </CharString>
        <CharString name="uni05E9">
          -5 callsubr
          1056 -20 hstem
          181 180 358 181 365 180 vstem
          361 1178 -81 callsubr
          -104 callgsubr
          endchar
        </CharString>
        <CharString name="uni05EA">
          174 -7 callgsubr
          516 186 hintmask 10011100
          662 -56 callsubr
          -549 -75 callsubr
          167 -34 callgsubr
          -312 vhcurveto
          endchar
        </CharString>
        <CharString name="uni05F0">
          103 21 callsubr
          418 -55 callgsubr
          237 hmoveto
          -67 callsubr
          604 -1029 0 callgsubr
        </CharString>
        <CharString name="uni05F1">
          117 21 callsubr
          452 -55 callgsubr
          237 hmoveto
          -67 callsubr
          638 -508 -77 callgsubr
          endchar
        </CharString>
        <CharString name="uni05F2">
          131 26 callsubr
          271 186 432 -55 callgsubr
          271 521 -77 callgsubr
          618 -508 -77 callgsubr
          endchar
        </CharString>
        <CharString name="uni05F3">
          -762 899 526 hstem
          109 168 vstem
          127 899 rmoveto
          88 -6 callgsubr
          -33 -94 -61 -82 vhcurveto
          endchar
        </CharString>
        <CharString name="uni05F4">
          -433 899 526 hstem
          121 169 133 168 vstem
          140 899 rmoveto
          87 81 63 129 135 vvcurveto
          181 -169 -195 vlineto
          -102 -32 -94 -62 -82 vhcurveto
          415 -53 rmoveto
          87 -6 callgsubr
          -32 -94 -62 -82 vhcurveto
          endchar
        </CharString>
        <CharString name="uni1E9E">
          218 -21 151 -109 -21 701 145 480 19 callsubr
          143 186 716 186 hintmask 10111100
          764 846 rmoveto
          332 406 rlineto
          124 -130 -156 100 -217 hhcurveto
          -304 -145 -174 -340 -1 hvcurveto
          hintmask 01111100
          -962 186 960 vlineto
          198 45 168 219 135 83 -50 -52 64 vhcurveto
          -307 -373 rlineto
          -150 147 vlineto
          218 112 -91 -206 hvcurveto
          hintmask 10111100
          -161 -113 -113 -193 -96 -76 25 26 -55 vhcurveto
          -54 -152 rlineto
          -35 94 94 -15 93 hhcurveto
          288 204 156 273 268 -169 156 -298 14 hvcurveto
          endchar
        </CharString>
        <CharString name="uni1E9E.smcp">
          0 -21 151 -109 -21 1031 19 callsubr
          138 186 507 187 hintmask 10111000
          668 669 rmoveto
          273 329 rlineto
          101 -105 -124 82 -174 hhcurveto
          -269 -130 -145 -283 -1 hvcurveto
          hintmask 01111000
          -753 186 751 vlineto
          152 48 128 166 83 53 -32 -31 39 vhcurveto
          -236 -296 rlineto
          -136 84 vlineto
          178 92 -53 -130 hvcurveto
          hintmask 10111000
          -131 -77 -92 -132 -72 -56 25 26 -42 vhcurveto
          -53 -151 rlineto
          -36 73 75 -15 75 hhcurveto
          232 164 137 240 186 -134 108 -216 19 hvcurveto
          endchar
        </CharString>
        <CharString name="uni200C">
          -1105 -200 1475 hstem
          -644 117 vstem
          -644 1275 rmoveto
          -1475 117 1475 vlineto
          endchar
        </CharString>
        <CharString name="uni200D">
          -1105 -200 1700 hstem
          -646 116 vstem
          -316 1413 rmoveto
          -86 87 -182 -185 -181 185 -87 -87 182 -186 -182 -185 88 -87 118 121 rlineto
          -1276 116 1285 vlineto
          127 -130 87 87 -182 185 rlineto
          endchar
        </CharString>
        <CharString name="uni200E">
          22 callsubr
          -815 117 vstem
          -445 -29 callgsubr
          -166 hlineto
          192 -181 rlineto
          -396 -1475 117 1358 268 hlineto
          -190 -164 rlineto
          165 hlineto
          248 222 rlineto
          endchar
        </CharString>
        <CharString name="uni200F">
          22 callsubr
          -385 117 vstem
          -268 1275 rmoveto
          -396 hlineto
          192 181 rlineto
          -166 hlineto
          -238 -240 248 -222 rlineto
          165 hlineto
          -190 164 rlineto
          268 -1358 117 hlineto
          endchar
        </CharString>
        <CharString name="uni2070">
          656 -62 callsubr
          992 -101 callsubr
        </CharString>
        <CharString name="uni2074">
          837 129 490 -20 -16 callgsubr
          966 -90 callgsubr
        </CharString>
        <CharString name="uni2075">
          656 127 284 -52 callsubr
          1055 -100 callgsubr
        </CharString>
        <CharString name="uni2076">
          656 -73 callgsubr
          1191 -103 callsubr
        </CharString>
        <CharString name="uni2077">
          1328 -23 callsubr
          1367 -65 callsubr
        </CharString>
        <CharString name="uni2078">
          656 -84 callsubr
          1073 -105 callgsubr
        </CharString>
        <CharString name="uni2079">
          660 -74 callsubr
          1467 -102 callgsubr
        </CharString>
        <CharString name="uni2080">
          -379 -62 callsubr
          -43 -101 callsubr
        </CharString>
        <CharString name="uni2081">
          -367 789 hstem
          338 158 vstem
          496 -367 rmoveto
          -53 callgsubr
        </CharString>
        <CharString name="uni2082">
          -367 -45 callgsubr
          -367 rmoveto
          -90 callsubr
        </CharString>
        <CharString name="uni2083">
          -378 -73 callsubr
          38 -96 callgsubr
        </CharString>
        <CharString name="uni2084">
          -197 129 -16 callgsubr
          -68 -90 callgsubr
        </CharString>
        <CharString name="uni2085">
          -378 127 262 -21 43 -52 callsubr
          21 -100 callgsubr
        </CharString>
        <CharString name="uni2086">
          -378 -73 callgsubr
          157 -103 callsubr
        </CharString>
        <CharString name="uni2087">
          294 -23 callsubr
          333 -65 callsubr
        </CharString>
        <CharString name="uni2088">
          -378 -84 callsubr
          39 -105 callgsubr
        </CharString>
        <CharString name="uni2089">
          -374 -74 callsubr
          433 -102 callgsubr
        </CharString>
        <CharString name="uni20AA">
          617 0 153 873 153 hstem
          152 173 237 173 224 173 237 172 vstem
          152 hmoveto
          173 1026 634 -449 hlineto
          -100 -10 -83 -20 -75 vhcurveto
          9 -8 151 24 rlineto
          30 77 13 82 92 vvcurveto
          593 -980 vlineto
          410 -1179 rmoveto
          460 hlineto
          324 197 186 297 -2 hvcurveto
          696 -172 -699 vlineto
          -204 -141 -124 -199 1 vhcurveto
          -294 676 -173 hlineto
          endchar
        </CharString>
        <CharString name="uniFB1F">
          131 -289 94 1224 149 hstem
          271 186 432 -55 callgsubr
          271 521 -77 callgsubr
          618 -508 -77 callgsubr
          -722 -1318 1 callgsubr
        </CharString>
        <CharString name="uniFB20">
          113 -39 148 1069 -20 hstem
          61 976 vstem
          853 -56 callsubr
          -34 -723 -9 -179 -86 -112 -143 -40 rlinecurve
          -30 50 -18 57 -17 78 -190 30 callsubr
          21 -93 40 -65 47 -52 rlinecurve
          -97 3 -113 25 -127 50 -45 -139 rcurveline
          -58 155 141 -29 123 hhcurveto
          310 196 178 324 16 hvcurveto
          35 715 rlineto
          endchar
        </CharString>
        <CharString name="uniFB21">
          707 21 -21 1178 -20 hstem
          223 180 vstem
          1716 -56 callsubr
          -208 hlineto
          -375 -672 -733 672 rlineto
          -248 hlineto
          237 -219 rlineto
          -109 -83 -57 -127 -171 vvcurveto
          -578 180 572 vlineto
          136 27 94 47 76 vhcurveto
          951 -878 rlineto
          256 hlineto
          -417 383 rlineto
          endchar
        </CharString>
        <CharString name="uniFB22">
          242 -85 callsubr
          860 -38 callsubr
          60 -56 callsubr
          -149 800 -1029 185 1017 vlineto
          238 22 rlineto
          139 vlineto
          endchar
        </CharString>
        <CharString name="uniFB23">
          526 -85 callsubr
          148 183 962 -55 callgsubr
          1293 hmoveto
          186 808 hlineto
          233 -146 137 -245 vhcurveto
          -939 -149 935 hlineto
          129 80 -3 callsubr
          -1145 -822 rmoveto
          183 389 hlineto
          105 15 93 15 59 vhcurveto
          -8 9 -166 -24 rlineto
          -15 -43 -24 -74 -118 vvcurveto
          endchar
        </CharString>
        <CharString name="uniFB24">
          458 -34 155 908 149 hstem
          1197 -38 callsubr
          685 -34 rmoveto
          444 252 164 333 1 hvcurveto
          715 -1267 -149 1082 -565 vlineto
          -225 -1 -165 -118 -353 hhcurveto
          -149 -201 22 43 -219 hvcurveto
          -28 -149 rlineto
          -47 221 214 -24 169 hhcurveto
          endchar
        </CharString>
        <CharString name="uniFB25">
          312 -85 callsubr
          83 -38 callsubr
          1343 -56 callsubr
          -1075 323 -185 -472 1032 hlineto
          -587 -1029 rlineto
          199 hlineto
          616 1061 rlineto
          endchar
        </CharString>
        <CharString name="uniFB26">
          659 5 callsubr
          114 185 1130 -38 callsubr
          114 hmoveto
          1500 1178 -1500 hlineto
          185 -1028 rmoveto
          879 1130 -879 vlineto
          endchar
        </CharString>
        <CharString name="uniFB27">
          330 -85 callsubr
          1097 -38 callsubr
          1097 hmoveto
          185 808 hlineto
          233 -145 137 -246 vhcurveto
          -831 -149 827 hlineto
          131 79 1 callsubr
        </CharString>
        <CharString name="uniFB28">
          650 -7 callgsubr
          992 186 hintmask 10011100
          1139 -56 callsubr
          -1026 -75 callsubr
          643 -34 callgsubr
          -311 vhcurveto
          endchar
        </CharString>
        <CharString name="uniFB29">
          23 601 156 449 -20 hstem
          473 168 vstem
          473 1206 rmoveto
          -449 -410 -156 998 156 -420 449 vlineto
          endchar
        </CharString>
        <CharString name="uniFB2A">
          -5 callsubr
          1056 -32 callsubr
          358 181 365 180 -175 157 hintmask 00000000
          hintmask 11111010
          -58 callgsubr
          hintmask 11111100
          -104 callgsubr
          endchar
        </CharString>
        <CharString name="uniFB2B">
          -5 callsubr
          1056 -32 callsubr
          -175 157 376 181 365 180 hintmask 00000000
          hintmask 11101110
          264 -67 callgsubr
          -44 -34 -31 -42 -38 34 -34 44 hvcurveto
          hintmask 11110110
          97 -7 callsubr
          -104 callgsubr
          endchar
        </CharString>
        <CharString name="uniFB2C">
          -5 callsubr
          407 147 502 -32 callsubr
          358 181 104 157 104 180 -175 157 hintmask 0000000000000000
          hintmask 1011110010000000
          -58 callgsubr
          hintmask 1111111100000000
          -104 callgsubr
          438 204 -105 callsubr
        </CharString>
        <CharString name="uniFB2D">
          -5 callsubr
          407 147 502 -32 callsubr
          -175 157 376 181 104 157 104 180 hintmask 0000000000000000
          hintmask 1011011010000000
          264 -67 callgsubr
          -44 -34 -31 -42 -38 34 -34 44 hvcurveto
          hintmask 1111101110000000
          97 -7 callsubr
          -104 callgsubr
          438 204 -105 callsubr
        </CharString>
        <CharString name="uniFB2E">
          209 -289 94 216 -10 callsubr
          -100 callsubr
          -362 -805 1 callgsubr
        </CharString>
        <CharString name="uniFB2F">
          209 -289 94 216 -10 callsubr
          230 157 -100 callsubr
          -348 -805 rmoveto
          3 callgsubr
          44 34 32 41 50 -39 4 -8 119 vhcurveto
          155 94 -377 hlineto
          endchar
        </CharString>
        <CharString name="uniFB30">
          209 21 -21 148 147 883 -20 hstem
          194 180 131 157 -100 callsubr
          -257 -221 rmoveto
          -44 -34 -32 -41 -39 34 -35 44 -62 callgsubr
          41 -34 32 -45 hvcurveto
          endchar
        </CharString>
        <CharString name="uniFB31">
          -26 -20 callgsubr
          379 147 353 149 hstem
          303 157 241 -38 callsubr
          886 157 -82 callsubr
          -569 461 -50 callgsubr
        </CharString>
        <CharString name="uniFB32">
          -313 -8 170 -146 -21 26 -50 callsubr
          hstemhm
          123 157 147 183 hintmask 10011010
          67 -8 rmoveto
          206 163 160 178 24 hvcurveto
          7 hlineto
          hintmask 00111010
          69 -330 rlineto
          175 hlineto
          -82 390 rlineto
          -12 55 -7 67 58 vvcurveto
          608 -449 -149 266 -565 vlineto
          hintmask 10011010
          -32 -167 -118 -129 -199 -6 rrcurveto
          -18 -20 1 3 -20 hvcurveto
          hintmask 01011010
          -171 vlineto
          hintmask 10011010
          -3 15 17 0 15 hhcurveto
          hintmask 10011110
          134 537 -105 callsubr
        </CharString>
        <CharString name="uniFB33">
          -38 -61 callgsubr
          244 157 219 -26 callgsubr
          -681 -649 -105 callsubr
        </CharString>
        <CharString name="uniFB34">
          99 -61 callgsubr
          150 180 191 157 188 -47 callgsubr
          -267 -210 rmoveto
          -62 callgsubr
          41 -34 32 -45 -44 -34 -32 -41 -39 34 -35 44 hvcurveto
          -449 -529 -28 callgsubr
        </CharString>
        <CharString name="uniFB35">
          -501 -61 callgsubr
          -7 157 87 -55 callgsubr
          237 hmoveto
          -67 callsubr
          -166 -500 -105 callsubr
        </CharString>
        <CharString name="uniFB36">
          -381 -61 callgsubr
          487 157 -34 callsubr
          406 -492 -105 callsubr
        </CharString>
        <CharString name="uniFB38">
          158 -22 148 403 147 358 155 -11 -20 hstemhm
          181 185 208 157 204 186 hintmask 10101010
          -80 callgsubr
          hintmask 10011010
          740 -185 -727 vlineto
          hintmask 10101010
          -284 189 -189 282 vhcurveto
          hintmask 11101110
          551 vmoveto
          -62 callgsubr
          41 -34 32 -45 -44 -34 -32 -41 -39 34 -35 44 hvcurveto
          endchar
        </CharString>
        <CharString name="uniFB39">
          -487 716 147 166 149 hstem
          14 157 100 -55 callgsubr
          271 521 -77 callgsubr
          -179 -313 -105 callsubr
        </CharString>
        <CharString name="uniFB3A">
          -91 -63 callsubr
          hstem
          251 157 243 -17 callgsubr
          -322 -500 -105 callsubr
        </CharString>
        <CharString name="uniFB3B">
          -4 -17 149 397 147 353 149 hstem
          331 157 247 -38 callsubr
          414 -17 -87 callgsubr
          -5 546 -105 callsubr
        </CharString>
        <CharString name="uniFB3C">
          -53 21 -21 604 147 278 149 hstemhm
          83 185 -36 157 hintmask 11110000
          -41 callgsubr
          hintmask 11101000
          -589 -383 -50 callgsubr
        </CharString>
        <CharString name="uniFB3E">
          194 0 149 380 147 368 156 hstem
          610 157 195 -84 callgsubr
          427 -220 -105 callsubr
        </CharString>
        <CharString name="uniFB40">
          -363 -20 154 -133 -21 549 147 353 149 hstemhm
          94 157 124 186 hintmask 10110100
          -49 callsubr
          hintmask 01110100
          -5 -145 rlineto
          hintmask 10110100
          -14 63 59 -8 69 hhcurveto
          hintmask 10111100
          -79 549 -105 callsubr
        </CharString>
        <CharString name="uniFB41">
          200 -22 157 394 147 368 156 hstem
          170 186 235 157 234 -92 callgsubr
          1 394 -105 callsubr
        </CharString>
        <CharString name="uniFB43">
          110 403 160 143 147 176 11 callsubr
          164 157 155 -79 callgsubr
          -417 1122 -105 callsubr
        </CharString>
        <CharString name="uniFB44">
          -3 callgsubr
          106 147 163 149 hstem
          190 185 197 157 189 -38 callsubr
          583 -20 -99 callgsubr
          67 739 -105 callsubr
        </CharString>
        <CharString name="uniFB46">
          14 -20 callgsubr
          137 147 744 -20 hstem
          245 157 -55 callsubr
          -289 -182 -50 callgsubr
        </CharString>
        <CharString name="uniFB47">
          168 -61 callgsubr
          202 180 178 157 189 -80 callsubr
          436 87 -105 callsubr
        </CharString>
        <CharString name="uniFB48">
          -100 -61 callgsubr
          263 157 247 -47 callsubr
          -326 -293 -105 callsubr
        </CharString>
        <CharString name="uniFB49">
          -5 callsubr
          407 147 502 -20 hstem
          181 180 358 181 104 157 104 180 vstem
          361 1178 -81 callsubr
          -104 callgsubr
          438 204 -105 callsubr
        </CharString>
        <CharString name="uniFB4A">
          174 -10 154 -124 -21 22 -50 callsubr
          hstemhm
          244 181 180 157 179 186 hintmask 10011101
          662 -56 callsubr
          -549 -149 221 hlineto
          -57 -74 -33 -134 -118 vvcurveto
          -372 vlineto
          -129 -49 -58 -117 -22 -23 1 3 -24 vhcurveto
          hintmask 01011101
          -149 vlineto
          hintmask 10011101
          -5 40 35 -4 40 hhcurveto
          195 106 113 217 hvcurveto
          397 vlineto
          118 28 122 44 72 vhcurveto
          167 hlineto
          194 83 -87 -204 hvcurveto
          hintmask 00111101
          1 -738 rlineto
          185 727 hlineto
          hintmask 10011101
          304 -153 147 -312 vhcurveto
          hintmask 10011111
          21 -649 -105 callsubr
        </CharString>
        <CharString name="uniFB4B">
          -501 21 -70 callgsubr
          153 145 hstemhm
          184 158 -105 186 hintmask 00000000
          hintmask 11110000
          263 -67 callgsubr
          -45 -34 -31 -42 -38 34 -34 45 hvcurveto
          hintmask 11101000
          -26 -1331 0 callgsubr
        </CharString>
        <CharString name="uniFB4C">
          -26 -20 callgsubr
          879 149 179 107 hstem
          701 -38 callsubr
          726 1464 rmoveto
          -487 -107 487 hlineto
          160 -1200 -82 callsubr
          endchar
        </CharString>
        <CharString name="uniFB4D">
          -4 -17 149 897 149 179 107 hstem
          735 -38 callsubr
          234 -11 callsubr
          180 -1481 -87 callgsubr
          endchar
        </CharString>
        <CharString name="uniFB4E">
          -3 callgsubr
          416 149 179 107 hstem
          190 185 543 -38 callsubr
          402 -11 callsubr
          181 -1484 -99 callgsubr
          endchar
        </CharString>
        <CharString name="uniFB4F">
          90 21 -21 1178 -20 hstem
          83 -38 callsubr
          1099 -56 callsubr
          -209 hlineto
          -289 -513 -333 467 rlineto
          369 -185 -401 vlineto
          787 -1100 rlineto
          205 hlineto
          -360 505 rlineto
          endchar
        </CharString>
        <CharString name="v">
          -112 -9 callgsubr
          33 922 vstem
          764 1082 rmoveto
          -266 -829 -274 829 rlineto
          -191 hlineto
          392 -1082 rlineto
          142 hlineto
          388 1082 rlineto
          endchar
        </CharString>
        <CharString name="w">
          434 -9 callgsubr
          43 1448 vstem
          1306 1082 rmoveto
          -208 -820 -255 820 rlineto
          -151 hlineto
          -251 -802 -212 802 rlineto
          -186 hlineto
          314 -1082 rlineto
          151 hlineto
          256 817 262 -817 rlineto
          151 hlineto
          314 1082 rlineto
          endchar
        </CharString>
        <CharString name="x">
          -89 -9 callgsubr
          41 930 vstem
          504 687 rmoveto
          -236 395 rlineto
          -216 hlineto
          354 -534 -365 -548 rlineto
          218 hlineto
          248 407 249 -407 rlineto
          215 hlineto
          -364 548 353 534 rlineto
          -218 hlineto
          endchar
        </CharString>
        <CharString name="y">
          31 callgsubr
          hstem
          22 922 vstem
          745 1082 -91 callsubr
        </CharString>
        <CharString name="yacute">
          31 callgsubr
          1520 -46 callsubr
          22 922 vstem
          834 13 callsubr
          -83 callsubr
          180 -161 -91 callsubr
        </CharString>
        <CharString name="ydieresis">
          31 callgsubr
          1543 210 hstemhm
          185 -69 callsubr
          hintmask 00000000
          hintmask 11110000
          295 -92 callsubr
          20 -184 -91 callsubr
        </CharString>
        <CharString name="yen">
          -29 21 -21 322 124 166 124 720 -20 hstem
          437 194 vstem
          1061 -29 callgsubr
          -215 hlineto
          -306 -660 -307 660 rlineto
          -218 hlineto
          367 -720 rlineto
          -262 -124 317 -166 -317 -124 317 -322 194 322 324 124 -324 164 hlineto
          1 2 rlineto
          323 124 -260 hlineto
          endchar
        </CharString>
        <CharString name="yen.smcp">
          -176 21 -21 222 120 75 120 hstem
          368 -55 callgsubr
          915 -15 callsubr
          -198 hlineto
          -252 -574 -251 574 rlineto
          -200 hlineto
          300 -628 rlineto
          -220 -120 274 -75 -274 -120 274 -222 186 222 273 120 -273 69 hlineto
          3 6 rlineto
          270 120 -212 hlineto
          endchar
        </CharString>
        <CharString name="z">
          -89 -20 callgsubr
          781 -12 callsubr
          89 858 vstem
          316 11 callgsubr
          602 802 rlineto
          130 -821 -151 590 vlineto
          -598 -796 rlineto
          -135 858 150 vlineto
          endchar
        </CharString>
        <CharString name="zero">
          46 -20 150 1196 10 callsubr
          115 187 546 -81 callgsubr
          1035 621 rmoveto
          223 vlineto
          475 -179 157 -281 -280 -180 -157 -475 vhcurveto
          -223 vlineto
          -475 183 -166 279 282 176 166 475 vhcurveto
          -187 254 rmoveto
          -283 vlineto
          -326 -92 -136 -179 -176 -99 136 326 vhcurveto
          283 vlineto
          328 97 123 176 178 95 -123 -328 vhcurveto
          endchar
        </CharString>
        <CharString name="zero.frac">
          653 -62 callsubr
          989 -101 callsubr
        </CharString>
        <CharString name="zero.smcp">
          -65 20 callsubr
          896 -12 callsubr
          99 187 466 188 vstem
          940 497 rmoveto
          174 vlineto
          349 -165 161 -256 -254 -166 -161 -349 vhcurveto
          -174 vlineto
          -349 168 -164 254 255 164 164 349 vhcurveto
          -188 202 rmoveto
          -228 vlineto
          -222 -79 -115 -152 -150 -85 115 222 vhcurveto
          228 vlineto
          221 83 110 150 152 81 -110 -221 vhcurveto
          endchar
        </CharString>
        <CharString name="zero.sup">
          -11 -62 callsubr
          325 -101 callsubr
        </CharString>
        <CharString name="zero.tnum">
          175 endchar
        </CharString>
      <CharString index="0">
        rmoveto
        93 vlineto
        436 -231 266 -355 -345 -241 -266 -436 vhcurveto
        -93 vlineto
        -436 243 -265 345 355 229 265 436 vhcurveto
        -192 95 rmoveto
        -95 vlineto
        -349 -142 -190 -250 -238 -157 190 349 vhcurveto
        95 vlineto
        347 155 190 238 248 146 -190 -347 vhcurveto
        endchar
      </CharString>
      <CharString index="1">
        rmoveto
        -23 vlineto
        -313 189 -236 304 304 188 236 313 vhcurveto
        23 vlineto
        313 -188 237 -306 -302 -189 -237 -313 vhcurveto
        187 -23 rmoveto
        23 vlineto
        213 101 187 203 205 102 -187 -213 vhcurveto
        -23 vlineto
        -215 -102 -184 -203 -205 -101 184 215 vhcurveto
        endchar
      </CharString>
      <CharString index="2">
        rmoveto
        hintmask 11101100
        74 35 45 61 78 vvcurveto
        142 -117 78 -160 -161 -115 -78 -142 -78 45 -61 74 -35 vhcurveto
        hintmask 11110010
        -85 -35 -54 -67 -88 vvcurveto
        -150 129 -77 168 168 128 77 150 88 -54 67 -85 35 vhcurveto
        hintmask 11101100
        -158 267 rmoveto
        73 46 -41 -61 -62 -45 -41 -73 -74 -45 41 62 63 45 39 73 hvcurveto
        hintmask 11110010
        1 -557 rmoveto
        -84 -54 42 70 69 54 42 83 82 57 -42 -69 -70 -56 -42 -82 hvcurveto
        endchar
      </CharString>
      <CharString index="3">
        365 306 165 344 hvcurveto
        697 -180 -680 vlineto
        -257 -219 -119 -281 -129 -148 33 54 -127 vhcurveto
        283 116 rmoveto
        154 -6 rlineto
        70 71 32 100 135 vvcurveto
        553 -181 -586 vlineto
        -120 -25 -94 -50 -53 vhcurveto
        return
      </CharString>
      <CharString index="4">
        190 hlineto
        -472 -38 callgsubr
        rlineto
        -167 hlineto
        -479 -1165 rlineto
        190 hlineto
        111 280 rlineto
        518 hlineto
        -458 151 rmoveto
        200 507 199 -507 rlineto
        endchar
      </CharString>
      <CharString index="5">
        rmoveto
        -180 -113 -128 -153 -155 90 -109 169 70 59 26 39 41 hvcurveto
        -136 -14 -85 -65 -180 hhcurveto
        -14 -126 15 hlineto
        301 137 155 278 hvcurveto
        52 vlineto
        202 -110 120 -186 vhcurveto
        2 -424 rmoveto
        -91 -46 63 80 83 51 70 84 79 59 -54 -111 hvcurveto
        -60 vlineto
        -38 -22 -48 -33 -66 hhcurveto
        endchar
      </CharString>
      <CharString index="6">
        -248 273 rlineto
        -112 hlineto
        -246 -272 rlineto
        -11 153 vlineto
        return
      </CharString>
      <CharString index="7">
        rmoveto
        127 -31 rlineto
        21 29 30 22 73 hhcurveto
        97 53 -57 -83 -82 -39 -62 -96 -78 -53 31 69 -8 hvcurveto
        -156 hlineto
        -145 8 138 -82 149 hhcurveto
        201 93 126 143 162 -101 96 -170 -61 -53 -18 -11 -25 hvcurveto
        23 172 rlineto
        348 130 -479 hlineto
        endchar
      </CharString>
      <CharString index="8">
        rmoveto
        303 -2 217 162 342 vvcurveto
        696 -961 -149 143 vlineto
        -59 -84 -36 -139 -134 vvcurveto
        4 -152 rlineto
        -51 94 77 -16 166 hhcurveto
        160 vlineto
        -79 -47 5 13 -30 hvcurveto
        90 vlineto
        111 28 123 43 74 vhcurveto
        472 -582 hlineto
        -202 -124 -111 -218 -2 vhcurveto
        -91 -127 17 37 -123 hvcurveto
        -36 -139 rlineto
        -44 128 142 -23 114 hhcurveto
        return
      </CharString>
      <CharString index="9">
        rmoveto
        -195 -985 hlineto
        -228 -133 -107 -201 -200 -134 107 228 vhcurveto
        985 -192 -985 vlineto
        -328 229 -163 297 282 247 163 328 vhcurveto
        endchar
      </CharString>
      <CharString index="10">
        46 -20 150 544 151 501 19 callsubr
        113 187 -154 187 485 187 -153 187 hintmask 11110010
        791 750 rmoveto
        hintmask 11101100
        130 63 84 120 144 vvcurveto
        254 -181 145 -248 -249 -181 -145 -254 -144 81 -120 130 -62 vhcurveto
        hintmask 11110010
        -150 -64 -94 -131 -162 vvcurveto
        -266 201 -148 262 261 202 148 266 161 -97 131 -151 64 vhcurveto
        hintmask 11101100
        -215 576 rmoveto
        144 98 -107 -145 -151 -97 -98 -145 -146 -97 98 151 154 98 98 145 hvcurveto
        hintmask 11110010
        -1196 vmoveto
        -171 -105 100 168 162 106 114 168 165 113 -114 -162 -168 -105 -100 -171 hvcurveto
        endchar
      </CharString>
      <CharString index="11">
        rmoveto
        hintmask 11101100
        88 33 48 65 73 vvcurveto
        146 -119 78 -174 -160 -127 -85 -136 vhcurveto
        159 hlineto
        58 56 36 75 92 40 -45 -59 -65 -48 -45 -97 vhcurveto
        -85 -115 85 hlineto
        hintmask 11110010
        98 60 -32 -84 -67 -49 -45 -93 -87 -58 46 60 hvcurveto
        -158 hlineto
        -162 147 -71 151 174 132 84 147 93 -47 64 -103 28 vhcurveto
        endchar
      </CharString>
      <CharString index="12">
        -122 -93 -101 -145 hvcurveto
        125 -7 rlineto
        63 43 49 56 vhcurveto
        return
      </CharString>
      <CharString index="13">
        9 callgsubr
        72 39 46 58 59 -39 47 -72 -72 -37 -47 -59 -58 37 -46 72 hvcurveto
        return
      </CharString>
      <CharString index="14">
        -125 12 rlineto
        -64 -44 -49 -56 vhcurveto
        -106 -49 96 -113 hhcurveto
        return
      </CharString>
      <CharString index="15">
        184 vstem
        668 -22 rmoveto
        299 199 216 325 hvcurveto
        141 vlineto
        339 -199 201 -329 -165 -214 -31 -46 -156 vhcurveto
        36 -140 74 20 86 23 51 6 rlinecurve
        1 -3 -6 -2 -4 -3 -4 -3 rlinecurve
        -96 -65 -72 -161 1 -156 rrcurveto
        -120 vlineto
        -325 3 200 -216 295 hhcurveto
        157 vmoveto
        -187 -125 153 230 hvcurveto
        131 vlineto
        245 5 116 150 180 hhcurveto
        200 125 -147 -239 hvcurveto
        -140 vlineto
        -230 -126 -153 -188 vhcurveto
        return
      </CharString>
      <CharString index="16">
        rmoveto
        -194 -293 rlineto
        150 hlineto
        269 293 rlineto
        return
      </CharString>
      <CharString index="17">
        rmoveto
        -107 490 -162 hlineto
        -377 -518 7 -101 rlineto
        373 -170 159 170 107 hlineto
        -487 129 rmoveto
        206 262 15 25 rlineto
        -287 vlineto
        endchar
      </CharString>
      <CharString index="18">
        rmoveto
        72 38 46 58 59 -38 47 -72 -72 -38 -47 -59 -58 38 -46 72 hvcurveto
        return
      </CharString>
      <CharString index="19">
        955 rmoveto
        -122 -111 -40 -91 -80 hvcurveto
        248 22 131 230 355 hhcurveto
        16 156 -16 hlineto
        -564 -134 -420 -412 hvcurveto
        -88 vlineto
        -271 153 -287 315 296 156 219 276 240 -127 240 -290 vhcurveto
        -35 -823 rmoveto
        -145 -136 141 260 hvcurveto
        69 vlineto
        113 41 114 88 130 hhcurveto
        179 85 -163 -174 -195 -97 -139 -171 hvcurveto
        endchar
      </CharString>
      <CharString index="20">
        rmoveto
        310 -1 196 162 343 vvcurveto
        691 -798 -149 613 -582 vlineto
        -200 -116 -111 -218 -4 vhcurveto
        -83 -1 -96 14 -111 30 -30 -139 rcurveline
        -35 121 112 -18 100 hhcurveto
        return
      </CharString>
      <CharString index="21">
        rmoveto
        518 629 156 -629 469 721 157 -915 -49 callgsubr
        925 156 vlineto
        endchar
      </CharString>
      <CharString index="22">
        -75 -40 -49 -63 -61 40 -47 75 76 40 47 61 63 -40 49 -76 hvcurveto
        return
      </CharString>
      <CharString index="23">
        -38 callsubr
        171 hmoveto
        183 hlineto
        89 767 rlineto
        171 20 93 106 129 hhcurveto
        179 98 -111 -210 hvcurveto
        -574 -300 -149 485 702 vlineto
        327 -1 -172 171 -317 hhcurveto
        -163 -209 -37 -53 -153 hvcurveto
        43 -140 76 26 101 26 59 10 rlinecurve
        2 -3 -6 -4 -8 -5 -6 -5 rlinecurve
        -65 -52 -53 -103 -14 -111 rrcurveto
        return
      </CharString>
      <CharString index="24">
        rlineto
        112 -9 49 -18 -68 vvcurveto
        -70 -74 -29 -92 vhcurveto
        7 -106 rlineto
        199 105 84 125 116 -76 44 -77 13 hvcurveto
        return
      </CharString>
      <CharString index="25">
        10 -20 160 -119 -21 526 130 298 148 return
      </CharString>
      <CharString index="26">
        187 vstem
        return
      </CharString>
      <CharString index="27">
        652 -22 rmoveto
        282 187 189 284 hvcurveto
        397 vlineto
        211 -112 130 -183 -76 -85 -27 -42 -66 vhcurveto
        29 -124 rlineto
        23 48 50 15 46 hhcurveto
        104 59 -73 -128 hvcurveto
        -395 vlineto
        -187 -114 -125 -170 -171 -114 125 187 vhcurveto
        return
      </CharString>
      <CharString index="28">
        183 vstem
        1034 -56 callsubr
        -891 -149 143 hlineto
        -59 -84 -39 -143 3 -135 3 -197 rcurveline
        -51 95 77 -16 166 hhcurveto
        160 vlineto
        -79 -47 5 13 -31 hvcurveto
        136 vlineto
        110 29 128 43 74 vhcurveto
        404 -1445 183 hlineto
        return
      </CharString>
      <CharString index="29">
        -30 callsubr
        -44 callgsubr
        return
      </CharString>
      <CharString index="30">
        rmoveto
        186 657 -402 -149 216 hlineto
        return
      </CharString>
      <CharString index="31">
        hlineto
        259 -293 rlineto
        return
      </CharString>
      <CharString index="32">
        102 52 93 71 118 hhcurveto
        140 75 -66 -170 hvcurveto
        -711 187 709 vlineto
        283 -134 110 -213 vhcurveto
        endchar
      </CharString>
      <CharString index="33">
        -135 -78 callgsubr
        941 return
      </CharString>
      <CharString index="34">
        127 281 127 145 130 hstem
        86 158 282 158 vstem
        431 return
      </CharString>
      <CharString index="35">
        rmoveto
        44 34 32 41 -44 callsubr
        return
      </CharString>
      <CharString index="36">
        5 -43 9 -43 12 -27 rrcurveto
        195 16 hlineto
        return
      </CharString>
      <CharString index="37">
        -21 -68 callgsubr
        return
      </CharString>
      <CharString index="38">
        -258 -116 232 286 hvcurveto
        149 vlineto
        309 134 207 258 224 88 -126 -204 29 vhcurveto
        194 hlineto
        288 -30 -175 199 -330 hhcurveto
        -361 -226 -268 -407 hvcurveto
        -147 vlineto
        return
      </CharString>
      <CharString index="39">
        1029 149 return
      </CharString>
      <CharString index="40">
        1331 rmoveto
        45 34 30 42 42 -34 31 -45 return
      </CharString>
      <CharString index="41">
        45 -36 callgsubr
        31 -45 -44 -34 -31 -42 return
      </CharString>
      <CharString index="42">
        111 21 -95 136 hhcurveto
        return
      </CharString>
      <CharString index="43">
        -213 -97 161 236 hvcurveto
        103 vlineto
        249 110 147 211 188 74 -92 -155 21 9 callsubr
        235 -25 -154 163 -291 hhcurveto
        -311 -195 -214 -334 hvcurveto
        -102 vlineto
        return
      </CharString>
      <CharString index="44">
        128 -185 -130 vlineto
        -109 -33 -90 -63 -88 vhcurveto
        106 -72 rlineto
        111 91 64 149 121 vvcurveto
        return
      </CharString>
      <CharString index="45">
        45 34 32 42 return
      </CharString>
      <CharString index="46">
        21 -50 callsubr
        hstem
        return
      </CharString>
      <CharString index="47">
        rmoveto
        121 94 87 116 116 -94 92 -121 -123 -93 -92 -116 7 callgsubr
        hvcurveto
        322 vmoveto
        68 48 -56 -63 -60 -48 -55 -68 -68 -48 56 59 63 48 56 68 hvcurveto
        return
      </CharString>
      <CharString index="48">
        hstemhm
        109 187 -164 187 return
      </CharString>
      <CharString index="49">
        1349 1331 rmoveto
        44 34 30 42 -44 callsubr
        -38 34 -34 45 hvcurveto
        -988 -7 callsubr
        return
      </CharString>
      <CharString index="50">
        -107 -20 callgsubr
        377 151 336 151 return
      </CharString>
      <CharString index="51">
        305 -20 162 1171 163 return
      </CharString>
      <CharString index="52">
        186 vstem
        return
      </CharString>
      <CharString index="53">
        394 hlineto
        404 256 263 421 hvcurveto
        88 vlineto
        420 -260 264 -383 vhcurveto
        451 -772 rmoveto
        -320 -158 -208 -310 vhcurveto
        -200 return
      </CharString>
      <CharString index="54">
        789 -18 vlineto
        -355 -116 rlineto
        -128 vlineto
        215 58 rlineto
        -603 vlineto
        endchar
      </CharString>
      <CharString index="55">
        -17 callsubr
        182 158 vstem
        261 -67 callgsubr
        -45 -34 -31 -42 -38 34 -34 45 hvcurveto
        endchar
      </CharString>
      <CharString index="56">
        125 458 125 return
      </CharString>
      <CharString index="57">
        rmoveto
        41 -34 32 -45 -44 -34 -32 -41 -39 34 -35 44 -62 callgsubr
        vhcurveto
        endchar
      </CharString>
      <CharString index="58">
        -1456 return
      </CharString>
      <CharString index="59">
        -38 callgsubr
        -187 -1165 vlineto
        endchar
      </CharString>
      <CharString index="60">
        -55 callgsubr
        866 hmoveto
        186 734 hlineto
        294 -160 150 -308 vhcurveto
        -436 -149 427 hlineto
        204 87 -86 -204 hvcurveto
        return
      </CharString>
      <CharString index="61">
        -20 156 -115 -21 return
      </CharString>
      <CharString index="62">
        127 546 127 hstem
        66 159 268 159 vstem
        684 return
      </CharString>
      <CharString index="63">
        -115 -170 -141 170 -14 callgsubr
        return
      </CharString>
      <CharString index="64">
        -330 hvcurveto
        -21 vlineto
        -316 return
      </CharString>
      <CharString index="65">
        rmoveto
        -377 732 rlineto
        -222 hlineto
        501 -912 rlineto
        -544 195 544 vlineto
        501 912 rlineto
        -220 hlineto
        endchar
      </CharString>
      <CharString index="66">
        978 -56 callsubr
        -710 358 -185 -507 691 hlineto
        -427 -1029 rlineto
        199 hlineto
        432 1061 rlineto
        return
      </CharString>
      <CharString index="67">
        -70 callsubr
        -192 -1129 vlineto
        -734 1129 rlineto
        -194 27 callgsubr
        1126 hlineto
        731 -1126 rlineto
        endchar
      </CharString>
      <CharString index="68">
        223 -20 156 1320 -20 return
      </CharString>
      <CharString index="69">
        1165 return
      </CharString>
      <CharString index="70">
        1476 26 callgsubr
        hvcurveto
        hintmask 11010000
        5 callgsubr
        vhcurveto
        hintmask 10110000
        59 -39 47 -72 vhcurveto
        hintmask 10101000
        return
      </CharString>
      <CharString index="71">
        33 29 callgsubr
        -33 return
      </CharString>
      <CharString index="72">
        -142 hlineto
        257 -398 -257 -398 rlineto
        142 hlineto
        return
      </CharString>
      <CharString index="73">
        hlineto
        194 83 -87 -204 hvcurveto
        hintmask 00111100
        1 -738 rlineto
        185 727 hlineto
        hintmask 10011100
        304 -153 147 return
      </CharString>
      <CharString index="74">
        1082 -186 -1082 vlineto
        endchar
      </CharString>
      <CharString index="75">
        187 hintmask 10111000
        635 1102 rmoveto
        -136 -101 -48 -88 -71 hvcurveto
        570 -187 vlineto
        hintmask 01111000
        -1536 return
      </CharString>
      <CharString index="76">
        hstem
        140 192 668 195 vstem
        return
      </CharString>
      <CharString index="77">
        187 hintmask 00000000
        return
      </CharString>
      <CharString index="78">
        -70 callsubr
        rmoveto
        return
      </CharString>
      <CharString index="79">
        rmoveto
        180 414 hlineto
        108 8 69 16 60 vhcurveto
        -152 hlineto
        -24 -51 -28 -61 -137 vvcurveto
        endchar
      </CharString>
      <CharString index="80">
        -427 150 257 156 811 155 hstem
        return
      </CharString>
      <CharString index="81">
        -55 callgsubr
        60 -56 callsubr
        -149 560 -1029 186 1029 197 149 vlineto
        return
      </CharString>
      <CharString index="82">
        -183 -200 -127 -77 62 85 -48 vhcurveto
        521 vlineto
        86 48 79 63 123 hhcurveto
        202 return
      </CharString>
      <CharString index="83">
        233 316 hvcurveto
        21 vlineto
        330 return
      </CharString>
      <CharString index="84">
        hstemhm
        136 187 479 187 return
      </CharString>
      <CharString index="85">
        hstem
        -35 callsubr
        return
      </CharString>
      <CharString index="86">
        96 185 32 callsubr
        return
      </CharString>
      <CharString index="87">
        0 150 return
      </CharString>
      <CharString index="88">
        202 127 80 -66 -89 47 vhcurveto
        -497 vlineto
        -92 -48 -77 -67 -131 hhcurveto
        endchar
      </CharString>
      <CharString index="89">
        -33 callsubr
        545 -55 callgsubr
        499 -15 callsubr
        -361 return
      </CharString>
      <CharString index="90">
        183 vstem
        651 -416 rmoveto
        183 1594 -769 -149 586 hlineto
        return
      </CharString>
      <CharString index="91">
        hstem
        434 159 vstem
        700 return
      </CharString>
      <CharString index="92">
        216 hvcurveto
        21 vlineto
        return
      </CharString>
      <CharString index="93">
        -941 187 return
      </CharString>
      <CharString index="94">
        187 hlineto
        return
      </CharString>
      <CharString index="95">
        -199 -133 -83 74 95 -47 vhcurveto
        474 vlineto
        95 46 82 73 133 hhcurveto
        return
      </CharString>
      <CharString index="96">
        rmoveto
        72 37 47 59 58 -37 46 -72 -72 -39 -46 -58 -59 39 -47 72 hvcurveto
        return
      </CharString>
      <CharString index="97">
        hstem
        118 193 787 192 vstem
        return
      </CharString>
      <CharString index="98">
        21 -21 hstem
        return
      </CharString>
      <CharString index="99">
        -1498 187 520 hlineto
        -80 73 102 -44 134 hhcurveto
        268 return
      </CharString>
      <CharString index="100">
        -10 154 -124 -21 22 -70 callgsubr
        hstemhm
        244 181 return
      </CharString>
      <CharString index="101">
        81 62 129 135 vvcurveto
        1 181 rlineto
        -169 -195 hlineto
        -102 return
      </CharString>
      <CharString index="102">
        -70 callsubr
        -20 hstem
        return
      </CharString>
      <CharString index="103">
        -123 -11 -112 -89 -132 hhcurveto
        return
      </CharString>
      <CharString index="104">
        179 -20 152 321 160 return
      </CharString>
      <CharString index="105">
        -316 -72 callgsubr
        return
      </CharString>
      <CharString index="106">
        -616 21 -21 1273 -46 callsubr
        151 -81 callgsubr
        return
      </CharString>
      <CharString index="107">
        rmoveto
        4 callgsubr
      </CharString>
      <CharString index="108">
        rmoveto
        404 94 -404 hlineto
        endchar
      </CharString>
      <CharString index="109">
        rmoveto
        711 1138 -105 66 -711 -1138 rlineto
        return
      </CharString>
      <CharString index="110">
        159 hlineto
        -7 -119 -40 -4 -50 vvcurveto
        -38 34 -35 45 return
      </CharString>
      <CharString index="111">
        -67 callsubr
        endchar
      </CharString>
      <CharString index="112">
        -58 37 -46 72 72 39 46 58 return
      </CharString>
      <CharString index="113">
        13 callgsubr
        -46 callsubr
        return
      </CharString>
      <CharString index="114">
        -116 93 -87 123 return
      </CharString>
      <CharString index="115">
        210 0 -20 hstemhm
        return
      </CharString>
      <CharString index="116">
        430 -2 rmoveto
        return
      </CharString>
      <CharString index="117">
        131 69 72 return
      </CharString>
      <CharString index="118">
        150 rmoveto
        return
      </CharString>
      <CharString index="119">
        6 callsubr
        85 146 -119 94 hstemhm
        return
      </CharString>
      <CharString index="120">
        1243 return
      </CharString>
      <CharString index="121">
        -560 -312 150 1676 10 callsubr
        return
      </CharString>
      <CharString index="122">
        hhcurveto
        -272 -151 -239 -341 hvcurveto
        -21 vlineto
        return
      </CharString>
      <CharString index="123">
        193 227 239 250 183 -227 return
      </CharString>
      <CharString index="124">
        -268 301 -357 -347 -278 -301 return
      </CharString>
      <CharString index="125">
        hlineto
        -80 -410 rlineto
        144 hlineto
        80 410 rlineto
        return
      </CharString>
      <CharString index="126">
        141 293 return
      </CharString>
      <CharString index="127">
        141 hstemhm
        return
      </CharString>
      <CharString index="128">
        157 hstem
        return
      </CharString>
      <CharString index="129">
        28 callgsubr
        -156 -24 -71 -87 -199 hhcurveto
        return
      </CharString>
</ttFont>
